<?xml version="1.0" encoding="UTF-8"?>
<svg width="49px" height="43px" viewBox="0 0 49 43" version="1.1" xmlns="http://www.w3.org/2000/svg" xmlns:xlink="http://www.w3.org/1999/xlink">
    <!-- Generator: Sketch 60 (88103) - https://sketch.com -->
    <title>Group 12</title>
    <desc>Created with Sketch.</desc>
    <defs>
        <polygon id="path-1" points="0 0.33 48.3212632 0.33 48.3212632 42.8421053 0 42.8421053"></polygon>
    </defs>
    <g id="PETRONAS-Arbor" stroke="none" stroke-width="1" fill="none" fill-rule="evenodd">
        <g id="Desktop" transform="translate(-1154.000000, -2683.000000)">
            <g id="Group-14" transform="translate(0.000000, 2484.000000)">
                <g id="Group-11" transform="translate(140.000000, 115.000000)">
                    <g id="Group-2" transform="translate(0.000000, 83.000000)">
                        <g id="Group-12" transform="translate(1014.000000, 0.000000)">
                            <path d="M15.5632632,12.7310526 C14.4621053,11.6310526 12.6777895,11.6310526 11.5766316,12.7322105 C10.4766316,13.8322105 10.4766316,15.6165263 11.5766316,16.7176842 C12.6777895,17.8188421 14.4621053,17.8188421 15.5632632,16.7188421 C16.6632632,15.6165263 16.6621053,13.8322105 15.5621053,12.7298947 L15.5632632,12.7310526 Z M14.4238947,15.5783158 C14.0788421,15.9233684 13.5589474,16.0264211 13.1073684,15.84 C12.6557895,15.6535789 12.3616842,15.2124211 12.3616842,14.7237895 C12.3616842,14.2351579 12.6557895,13.7951579 13.1073684,13.6075789 C13.5589474,13.4211579 14.0788421,13.5242105 14.4238947,13.8704211 C14.8951579,14.3416842 14.8951579,15.1058947 14.4238947,15.5783158 L14.4238947,15.5783158 Z" id="Fill-1" fill="#FECC09"></path>
                            <path d="M35.5347474,40.3115368 C36.4946421,40.3138421 37.4163263,39.9328947 38.0936947,39.2520526 C39.3199053,38.0293158 39.5109579,36.1095263 38.5499053,34.6691053 C37.5888526,33.2286842 35.7443263,32.6671053 34.1429579,33.3294211 C32.5439053,33.9905789 31.6338,35.6915263 31.9707474,37.3901579 C32.3088526,39.0887895 33.7990632,40.3115368 35.5301158,40.3115368 L35.5347474,40.3115368 Z M34.1105368,35.2654211 C34.8967474,34.4792105 36.1715895,34.4792105 36.9578,35.2654211 C37.7440105,36.0516316 37.7440105,37.3264737 36.9578,38.1126842 C36.1600105,38.8722632 34.9071684,38.8722632 34.1105368,38.1126842 C33.7319053,37.7352105 33.5200105,37.2234211 33.5200105,36.6884737 C33.5200105,36.1546842 33.7319053,35.6428947 34.1105368,35.2654211 L34.1105368,35.2654211 Z" id="Fill-3" fill="#FECC09"></path>
                            <g id="Group-7" transform="translate(0.000000, 0.828011)">
                                <mask id="mask-2" fill="white">
                                    <use xlink:href="#path-1"></use>
                                </mask>
                                <g id="Clip-6"></g>
                                <path d="M39.3080947,0.801726316 C39.0058842,0.499515789 38.5959895,0.329305263 38.1687263,0.329305263 C37.7414632,0.329305263 37.3315684,0.499515789 37.0293579,0.801726316 L35.3214632,2.50730526 L33.0438842,4.78488421 L25.0706211,12.7581474 C24.6178842,13.2108842 24.3631474,13.8257263 24.3631474,14.4660421 C24.3631474,15.1075158 24.6178842,15.7212 25.0706211,16.1750947 L25.3647263,16.4668842 C25.9066211,17.0064632 26.6731474,17.2577263 27.4292526,17.1430947 C27.4327263,17.1419368 27.4373579,17.1419368 27.4408316,17.1430947 L27.5126211,17.1349895 L27.5253579,17.1349895 L25.9633579,18.6969895 C25.4631474,19.1972 24.8448316,19.7773053 24.1605158,20.3967789 C23.4437789,19.7518316 22.8243053,19.1694105 22.3530421,18.7004632 L20.7945158,17.1349895 C20.8211474,17.1349895 20.8500947,17.1396211 20.8744105,17.1442526 C20.8778842,17.1430947 20.8825158,17.1430947 20.8859895,17.1442526 C21.6420947,17.2588842 22.4086211,17.0087789 22.9505158,16.4692 L23.2457789,16.1750947 C24.1894632,15.2314105 24.1894632,13.7018316 23.2457789,12.7581474 L15.2725158,4.78488421 L12.9995684,2.50730526 L11.2916737,0.801726316 C10.6536737,0.192673684 9.65093684,0.192673684 9.01293684,0.801726316 L0.471147368,9.33888421 C-0.157589474,9.96762105 -0.157589474,10.9877263 0.471147368,11.6164632 L2.1802,13.3255158 L12.4298842,23.5775158 C12.8837789,24.0302526 13.4986211,24.2849895 14.1389368,24.2849895 C14.7804105,24.2849895 15.3940947,24.0302526 15.8479895,23.5775158 L16.1409368,23.2834105 C16.6480947,22.7693053 16.8982,22.0525684 16.8194632,21.3335158 C16.8194632,21.3254105 16.8240947,21.3196211 16.8240947,21.3115158 C16.8229368,21.2721474 16.8206211,21.2327789 16.8148316,21.1934105 C16.8148316,21.1690947 16.8113579,21.1482526 16.8078842,21.1250947 L18.3722,22.6847789 C18.7786211,23.0923579 19.2498842,23.5867789 19.7327263,24.1170947 C16.6087263,26.5556211 13.2902,28.7660421 11.3565158,29.1759368 C10.9026211,29.2766737 10.4591474,29.4248842 10.0365158,29.6182526 L9.69262105,29.2755158 C9.39156842,28.9733053 8.98051579,28.8030947 8.55325263,28.8030947 C8.12598947,28.8030947 7.71609474,28.9733053 7.41504211,29.2755158 L6.28146316,30.4114105 C5.97925263,30.7136211 5.80904211,31.1235158 5.80904211,31.5507789 C5.80904211,31.9780421 5.97925263,32.3879368 6.28146316,32.6901474 L6.58483158,32.9923579 C5.57283158,35.1483579 5.76272632,37.6772 7.08735789,39.6560421 C7.59567368,40.4063579 8.24177895,41.0536211 8.99093684,41.5630947 C10.9686211,42.8993053 13.5055684,43.0915158 15.6615684,42.0679368 L15.9626211,42.3701474 C16.2648316,42.6723579 16.6747263,42.8425684 17.1019895,42.8425684 C17.5292526,42.8425684 17.9391474,42.6723579 18.2413579,42.3701474 L19.3760947,41.2319368 C20.0048316,40.6020421 20.0048316,39.5830947 19.3760947,38.9532 L19.0333579,38.6093053 C19.2255684,38.1878316 19.3737789,37.7466737 19.4745158,37.2927789 C19.8647263,35.4644632 21.8713579,32.3856211 24.1558842,29.4086737 C26.8398842,32.9043579 28.5049368,35.6902526 28.8488316,37.2881474 C28.9484105,37.7432 29.0966211,38.1855158 29.2899895,38.6093053 L28.9460947,38.9532 C28.6438842,39.2554105 28.4736737,39.6653053 28.4736737,40.0925684 C28.4736737,40.5198316 28.6438842,40.9297263 28.9460947,41.2319368 L30.0843053,42.3701474 C30.3865158,42.6723579 30.7964105,42.8425684 31.2248316,42.8425684 C31.6520947,42.8425684 32.0608316,42.6723579 32.3630421,42.3701474 L32.6652526,42.0690947 C34.8200947,43.0903579 37.3547263,42.8993053 39.3312526,41.5654105 C39.7075684,41.3118316 40.0584105,41.0223579 40.3779895,40.7016211 C40.6964105,40.3832 40.9835684,40.0346737 41.2348316,39.6606737 C42.5606211,37.6806737 42.7516737,35.1506737 41.7385158,32.9935158 L42.0418842,32.6901474 C42.3440947,32.3879368 42.5143053,31.9780421 42.5143053,31.5507789 C42.5143053,31.1235158 42.3440947,30.7136211 42.0418842,30.4114105 L40.9048316,29.2720421 C40.2749368,28.6433053 39.2559895,28.6433053 38.6272526,29.2720421 L38.2833579,29.6159368 C37.8618842,29.4202526 37.4195684,29.2732 36.9645158,29.1770947 C35.2832526,28.8181474 32.3202,27.0164632 28.5883053,24.1089895 C29.0804105,23.5740421 29.5400947,23.0923579 29.9488316,22.6824632 L31.5108316,21.1204632 C31.5073579,21.1505684 31.5062,21.1760421 31.5027263,21.2084632 C31.4969368,21.2489895 31.4957789,21.2918316 31.4957789,21.3335158 C31.4957789,21.3404632 31.4992526,21.3474105 31.4992526,21.3543579 C31.4251474,22.0676211 31.6740947,22.7762526 32.1777789,23.2868842 L32.4707263,23.5809895 C32.9246211,24.0337263 33.5383053,24.2884632 34.1797789,24.2884632 C34.8200947,24.2884632 35.4349368,24.0337263 35.8888316,23.5809895 L46.1419895,13.3266737 L47.8498842,11.6176211 C48.4786211,10.9888842 48.4786211,9.96993684 47.8498842,9.34004211 L39.3080947,0.801726316 Z M44.4329368,12.7616211 L43.2935684,13.9009895 L34.7517789,5.35341053 L35.8911474,4.2152 L40.1591474,8.4832 L44.4329368,12.7616211 Z M8.15956842,8.49362105 L12.4275684,4.22446316 L13.5669368,5.36383158 L5.02746316,13.8963579 L3.88809474,12.7581474 L8.15956842,8.49362105 Z M10.1523053,1.94341053 L11.2916737,3.08393684 L2.75451579,11.6199368 L1.61051579,10.4794105 L10.1523053,1.94341053 Z M15.0015684,22.1440421 L14.7086211,22.4381474 C14.5580947,22.5898316 14.3531474,22.6743579 14.1389368,22.6743579 C13.9247263,22.6743579 13.7197789,22.5898316 13.5692526,22.4381474 L6.16683158,15.0357263 L14.7074632,6.49277895 L22.1122,13.8963579 C22.4259895,14.2113053 22.4259895,14.7207789 22.1122,15.0357263 L21.8169368,15.3286737 C21.6305158,15.5081474 21.3699895,15.5892 21.1152526,15.5475158 C21.0978842,15.5475158 21.0816737,15.5475158 21.0654632,15.5428842 C20.9184105,15.5243579 20.7702,15.5069895 20.5675684,15.5000421 L20.5363053,15.5000421 C20.4274632,15.5000421 20.3186211,15.5000421 20.2086211,15.5081474 L20.0696737,15.5081474 L20.0164105,15.5081474 C19.6319895,15.5347789 19.2522,15.6054105 18.8839895,15.7177263 C18.8457789,15.7293053 18.8145158,15.7327789 18.7763053,15.7443579 L18.7589368,15.7513053 C18.7485158,15.7547789 18.7392526,15.7570947 18.7288316,15.7605684 C18.6037789,15.8034105 18.4822,15.8566737 18.3606211,15.9087789 C18.3258842,15.9238316 18.2865158,15.9365684 18.2529368,15.9504632 L18.2390421,15.9574105 L18.1579895,15.9956211 C18.0699895,16.0338316 17.9831474,16.0789895 17.9009368,16.1299368 L17.7156737,16.2353053 C17.6936737,16.2492 17.6716737,16.2596211 17.6496737,16.2735158 L17.6230421,16.2885684 C17.5060947,16.3696211 17.3810421,16.4506737 17.2733579,16.5305684 L17.2525158,16.5490947 C17.2004105,16.5884632 17.1494632,16.6301474 17.0996737,16.6695158 C16.9618842,16.7783579 16.8322,16.8941474 16.7094632,17.0168842 C16.5855684,17.1407789 16.4697789,17.2704632 16.3609368,17.4070947 C16.3204105,17.4580421 16.2810421,17.5078316 16.2428316,17.5587789 L16.2231474,17.5819368 C16.1548316,17.6722526 16.0807263,17.7787789 15.9938842,17.9107789 C15.9776737,17.9374105 15.9579895,17.9640421 15.9406211,17.9918316 L15.8456737,18.1597263 C15.8144105,18.2095158 15.7982,18.2546737 15.7715684,18.3044632 C15.6465158,18.5383579 15.5411474,18.7803579 15.4543053,19.0293053 C15.4485158,19.0420421 15.4462,19.0547789 15.4415684,19.0663579 C15.4369368,19.0790947 15.4415684,19.0848842 15.4346211,19.0929895 L15.4230421,19.1219368 C15.4091474,19.1694105 15.3998842,19.2215158 15.3859895,19.2701474 C15.3362,19.4438316 15.2956737,19.6198316 15.2644105,19.7969895 C15.2470421,19.8861474 15.2343053,19.9683579 15.2273579,20.0378316 C15.2134632,20.1501474 15.2030421,20.2624632 15.1949368,20.3747789 L15.1949368,20.3840421 C15.1822,20.5044632 15.1787263,20.6272 15.1833579,20.7487789 L15.1833579,20.8576211 L15.1833579,20.9421474 C15.1891474,21.0776211 15.2053579,21.2130947 15.2238842,21.3589895 L15.2238842,21.3647789 C15.2238842,21.3879368 15.2238842,21.4099368 15.2285158,21.4330947 C15.2713579,21.6924632 15.1868316,21.9564632 15.0015684,22.1440421 L15.0015684,22.1440421 Z M19.5115684,21.5407789 L17.1320947,19.1682526 C17.2397789,18.9459368 17.3683053,18.7363579 17.5188316,18.5406737 C17.5315684,18.5244632 17.5454632,18.5105684 17.5547263,18.4955158 C17.5651474,18.4816211 17.5929368,18.4503579 17.6103053,18.4283579 L17.6184105,18.4179368 C17.6890421,18.3322526 17.7619895,18.2465684 17.8418842,18.1666737 C17.9217789,18.0856211 18.0028316,18.0161474 18.0885158,17.9455158 C18.1209368,17.9258316 18.1522,17.9015158 18.1788316,17.8760421 C18.2019895,17.8598316 18.2205158,17.8424632 18.2425158,17.8262526 C18.4208316,17.6907789 18.6130421,17.5726737 18.8145158,17.4730947 C18.8237789,17.4730947 18.8318842,17.4638316 18.8423053,17.4592 L21.2148316,19.8386737 C21.6756737,20.2995158 22.2627263,20.8564632 22.9470421,21.4713053 C22.3275684,22.0062526 21.6733579,22.5562526 20.9948316,23.1074105 C20.4691474,22.5296211 19.9562,21.9877263 19.5104105,21.5419368 L19.5115684,21.5407789 Z M36.6437789,30.7541474 C37.1405158,30.8537263 37.6187263,31.0320421 38.0587263,31.2844632 C38.0830421,31.2960421 38.1073579,31.3053053 38.1316737,31.3145684 C38.1478842,31.3215158 38.1640947,31.3273053 38.1791474,31.3330947 C38.3563053,31.4083579 38.5566211,31.4083579 38.7337789,31.3330947 C38.7499895,31.3273053 38.7650421,31.3215158 38.7812526,31.3145684 C38.8750421,31.2752 38.9595684,31.2173053 39.0313579,31.1455158 L39.7666211,30.4114105 L40.9048316,31.5496211 L40.1927263,32.2617263 C40.1788316,32.2767789 40.1742,32.2964632 40.1603053,32.3115158 C40.1255684,32.3543579 40.0954632,32.3995158 40.0699895,32.4481474 C40.0155684,32.5326737 39.9831474,32.6310947 39.9773579,32.7318316 C39.9692526,32.7827789 39.9657789,32.8337263 39.9680947,32.8858316 C39.9727263,32.9344632 39.9819895,32.9819368 39.9958842,33.0294105 C40.0086211,33.0838316 40.0271474,33.1359368 40.0503053,33.1857263 C40.0595684,33.2042526 40.0595684,33.2239368 40.0699895,33.2424632 C41.0634632,34.9665684 40.9963053,37.1040421 39.8986211,38.7633053 C39.7654632,38.9578316 39.6207263,39.1419368 39.4620947,39.3156211 C39.4551474,39.3237263 39.4447263,39.3272 39.4377789,39.3364632 C39.3787263,39.4105684 39.3162,39.4823579 39.2490421,39.5483579 L39.2374632,39.5622526 L39.2212526,39.5773053 C39.1540947,39.6433053 39.0823053,39.7058316 39.0093579,39.7660421 C39.0000947,39.7718316 38.9977789,39.7822526 38.9885158,39.7892 C38.8136737,39.9478316 38.6284105,40.0948842 38.4327263,40.2280421 C36.7746211,41.3234105 34.6394632,41.3882526 32.9153579,40.3959368 C32.8979895,40.3855158 32.8783053,40.3855158 32.8597789,40.3762526 C32.8099895,40.3530947 32.7578842,40.3345684 32.7046211,40.3218316 C32.6571474,40.3079368 32.6073579,40.2986737 32.5587263,40.2940421 C32.5077789,40.2917263 32.4568316,40.2952 32.4070421,40.3021474 C32.3560947,40.3079368 32.3051474,40.3172 32.2565158,40.3322526 C32.1592526,40.3704632 32.0677789,40.4225684 31.9855684,40.4862526 C31.9705158,40.5001474 31.9496737,40.5047789 31.9357789,40.5198316 L31.2236737,41.2319368 L30.0843053,40.0925684 L30.8253579,39.3526737 C30.8369368,39.3399368 30.8404105,39.3237263 30.8519895,39.3121474 C30.8913579,39.2658316 30.9260947,39.2137263 30.9527263,39.1593053 C30.9747263,39.1222526 30.9932526,39.0840421 31.0094632,39.0446737 C31.0268316,38.9890947 31.0384105,38.9312 31.0430421,38.8721474 C31.0627263,38.7748842 31.0546211,38.6729895 31.0210421,38.5792 C31.0106211,38.5317263 30.9944105,38.4842526 30.9747263,38.4390947 C30.9666211,38.4217263 30.9666211,38.4020421 30.9573579,38.3846737 C30.7060947,37.9400421 30.5266211,37.4572 30.4247263,36.9558316 C29.9175684,34.5844632 27.3771474,30.9232 25.1840947,28.0967789 C25.9691474,27.1160421 26.7599895,26.1769895 27.5126211,25.3166737 C30.4420947,27.6093053 34.2064105,30.2342526 36.6437789,30.7541474 L36.6437789,30.7541474 Z M28.8129368,21.5442526 C28.3150421,22.0398316 27.6133579,22.7889895 26.8097789,23.6909895 C26.8016737,23.7002526 26.7912526,23.7037263 26.7843053,23.7129895 C26.7773579,23.7222526 26.7796737,23.7245684 26.7750421,23.7303579 C23.5537789,27.3534105 18.6304105,33.5203579 17.8974632,36.9616211 C17.7955684,37.4606737 17.6160947,37.9412 17.3648316,38.3858316 C17.3555684,38.4020421 17.3567263,38.4194105 17.3486211,38.4344632 C17.3254632,38.4865684 17.3080947,38.5409895 17.2976737,38.5965684 C17.2664105,38.6915158 17.2606211,38.7945684 17.2814632,38.8929895 C17.2860947,38.9439368 17.2965158,38.9937263 17.3115684,39.0423579 C17.3520947,39.1384632 17.4042,39.2287789 17.4667263,39.3121474 C17.4794632,39.3248842 17.4829368,39.3422526 17.4956737,39.3561474 L18.2367263,40.0960421 L17.0973579,41.2319368 L16.3864105,40.5198316 C16.3713579,40.5047789 16.3516737,40.5001474 16.3366211,40.4862526 C16.2532526,40.4225684 16.1617789,40.3704632 16.0645158,40.3322526 C16.0170421,40.3183579 15.9672526,40.3090947 15.9174632,40.3033053 C15.8665158,40.2952 15.8144105,40.2917263 15.7634632,40.2940421 C15.7148316,40.2986737 15.6662,40.3079368 15.6198842,40.3218316 C15.5643053,40.3345684 15.5098842,40.3519368 15.4589368,40.3762526 C15.4404105,40.3855158 15.4195684,40.3855158 15.4022,40.3959368 C13.6780947,41.3894105 11.5406211,41.3234105 9.88135789,40.2257263 C9.68798947,40.0937263 9.50388421,39.9478316 9.3302,39.7903579 C9.32209474,39.7834105 9.31746316,39.7718316 9.3082,39.7637263 C9.14841053,39.6386737 9.00483158,39.4962526 8.88093684,39.3364632 C8.87283158,39.3272 8.86241053,39.3237263 8.85546316,39.3156211 C8.69567368,39.1407789 8.54977895,38.9543579 8.41662105,38.7586737 C7.32009474,37.1005684 7.25525263,34.9642526 8.24872632,33.2424632 C8.25798947,33.2239368 8.25798947,33.2030947 8.26841053,33.1845684 C8.29041053,33.1359368 8.30893684,33.0849895 8.32167368,33.0317263 C8.35641053,32.8835158 8.35293684,32.7295158 8.31241053,32.5824632 C8.29504211,32.5361474 8.2742,32.4909895 8.24872632,32.4493053 C8.22325263,32.4006737 8.19198947,32.3543579 8.15725263,32.3115158 C8.14335789,32.2964632 8.13872632,32.2767789 8.12483158,32.2617263 L7.41272632,31.5496211 L8.55209474,30.4114105 L9.29083158,31.1513053 C9.35914737,31.2173053 9.4402,31.2694105 9.52704211,31.3076211 C9.54788421,31.3180421 9.57104211,31.3273053 9.59304211,31.3354105 C9.67872632,31.3678316 9.76904211,31.3840421 9.85935789,31.3863579 C9.95083158,31.3840421 10.0411474,31.3666737 10.1256737,31.3354105 C10.1488316,31.3273053 10.1696737,31.3180421 10.1905158,31.3087789 C10.2113579,31.2983579 10.2345158,31.2948842 10.2553579,31.2821474 C10.7011474,31.0308842 11.1839895,30.8514105 11.6842,30.7483579 C14.1632526,30.2203579 18.0642,27.5120421 21.4070421,24.8326737 C21.4163053,24.8257263 21.4267263,24.8222526 21.4348316,24.8153053 C21.4440947,24.8083579 21.4417789,24.8048842 21.4452526,24.8014105 C22.6540947,23.8276211 23.7876737,22.8677263 24.7545158,22.0108842 C25.7410421,21.1355158 26.5631474,20.3689895 27.0899895,19.8363579 L29.4764105,17.4580421 C29.7114632,17.5715158 29.9326211,17.7081474 30.1375684,17.8690947 C30.1618842,17.8910947 30.1885158,17.9142526 30.2174632,17.9350947 L30.2290421,17.9443579 C30.3147263,18.0161474 30.3992526,18.0879368 30.4791474,18.1666737 C30.5602,18.2465684 30.6319895,18.3334105 30.7037789,18.4190947 L30.7095684,18.4272 C30.7304105,18.4549895 30.7524105,18.4816211 30.7767263,18.5070947 L30.7894632,18.5256211 L30.7709368,18.5070947 C30.7825158,18.5244632 30.8022,18.5464632 30.8195684,18.5684632 C30.8832526,18.6495158 30.9469368,18.7375158 31.0013579,18.8266737 C31.0627263,18.9274105 31.1194632,19.0316211 31.1704105,19.1381474 C31.1750421,19.1462526 31.1796737,19.1543579 31.1843053,19.1647789 L28.8129368,21.5442526 Z M34.7517789,22.4393053 C34.6012526,22.5898316 34.3963053,22.6755158 34.1820947,22.6755158 C33.9690421,22.6755158 33.7629368,22.5898316 33.6124105,22.4393053 L33.3194632,22.1452 C33.1399895,21.9576211 33.0589368,21.6970947 33.1006211,21.4423579 C33.1006211,21.4249895 33.1006211,21.4076211 33.1052526,21.3890947 C33.1237789,21.2432 33.1411474,21.0961474 33.1480947,20.8946737 L33.1480947,20.8645684 C33.1527263,20.7290947 33.1480947,20.5936211 33.1388316,20.4627789 L33.1388316,20.3967789 L33.1388316,20.3701474 C33.1133579,19.9672 33.0404105,19.5688842 32.9199895,19.1821474 C32.9118842,19.1532 32.9095684,19.1312 32.9003053,19.1010947 L32.8956737,19.0895158 C32.8447263,18.9343579 32.7810421,18.7826737 32.7150421,18.6333053 C32.7069368,18.6147789 32.7011474,18.5939368 32.6930421,18.5765684 L32.6930421,18.5696211 C32.6791474,18.5395158 32.6664105,18.5082526 32.6513579,18.4769895 C32.6131474,18.3901474 32.5679895,18.3044632 32.5182,18.2222526 L32.4197789,18.0520421 C32.4035684,18.0242526 32.3885158,17.9964632 32.3723053,17.9709895 L32.3595684,17.9489895 C32.2785158,17.8320421 32.1986211,17.7069895 32.1129368,17.5993053 L32.0955684,17.5796211 C32.0562,17.5275158 32.0156737,17.4765684 31.9751474,17.4256211 C31.8663053,17.2889895 31.7505158,17.1581474 31.6277789,17.0354105 C31.4645158,16.8756211 31.2931474,16.7274105 31.1125158,16.5896211 L31.1032526,16.5826737 C31.0905158,16.5710947 31.0766211,16.5595158 31.0627263,16.5479368 C31.0129368,16.5108842 30.9596737,16.4680421 30.9017789,16.4321474 C30.8438842,16.3950947 30.7987263,16.3603579 30.7466211,16.3267789 C30.7130421,16.3047789 30.6864105,16.2862526 30.6493579,16.2630947 L30.4872526,16.1727789 C30.3911474,16.1183579 30.2915684,16.0685684 30.1919895,16.0199368 C30.1642,16.0072 30.1317789,15.9863579 30.1051474,15.9747789 C30.0912526,15.9689895 30.0750421,15.9643579 30.0611474,15.9585684 C29.9129368,15.8914105 29.7612526,15.8312 29.6060947,15.7790947 C29.5771474,15.7686737 29.5539895,15.7570947 29.5250421,15.7466737 L29.5007263,15.7408842 C29.2668316,15.6690947 29.0283053,15.6135158 28.7874632,15.5753053 C28.7469368,15.5683579 28.7075684,15.5637263 28.6728316,15.5590947 C28.5373579,15.5394105 28.4030421,15.5266737 28.2698842,15.5185684 C28.1818842,15.5104632 28.0962,15.5069895 28.0174632,15.5069895 L27.9560947,15.5069895 L27.9063053,15.5069895 L27.7071474,15.5069895 C27.5693579,15.5127789 27.4304105,15.5278316 27.2926211,15.5463579 L27.2810421,15.5463579 C27.2602,15.5463579 27.2405158,15.5463579 27.2196737,15.5509895 C26.9637789,15.5926737 26.7032526,15.5104632 26.5168316,15.3321474 L26.2238842,15.0380421 C25.9089368,14.7242526 25.9089368,14.2136211 26.2238842,13.8998316 L33.6274632,6.49625263 L42.1553579,15.0357263 L34.7517789,22.4393053 Z M45.5723053,11.6176211 L37.0351474,3.08162105 L38.1745158,1.94109474 L46.7105158,10.4794105 L45.5723053,11.6176211 Z" id="Fill-5" fill="#FECC09" mask="url(#mask-2)"></path>
                            </g>
                            <path d="M32.7586947,12.7303579 C31.6575368,13.8315158 31.6586947,15.6158316 32.7586947,16.7169895 C33.8598526,17.8169895 35.6441684,17.8169895 36.7453263,16.7169895 C37.8464842,15.6158316 37.8464842,13.8315158 36.7453263,12.7303579 C35.6430105,11.6315158 33.8598526,11.6315158 32.7575368,12.7315158 L32.7586947,12.7303579 Z M35.6059579,15.5787789 C35.1335368,16.0500421 34.3693263,16.0500421 33.8980632,15.5787789 C33.4256421,15.1063579 33.4256421,14.3421474 33.8980632,13.8697263 C34.3693263,13.3984632 35.1335368,13.3984632 35.6059579,13.8697263 C35.8317474,14.0966737 35.9602737,14.4035158 35.9602737,14.7242526 C35.9602737,15.0449895 35.8317474,15.3518316 35.6059579,15.5787789 L35.6059579,15.5787789 Z" id="Fill-8" fill="#FECC09"></path>
                            <path d="M10.2279158,34.1264 C8.81296842,35.5413474 8.81296842,37.8362947 10.2279158,39.2524 C11.6428632,40.6673474 13.9378105,40.6673474 15.3527579,39.2524 C16.7688632,37.8362947 16.7688632,35.5413474 15.3527579,34.1264 C14.6765474,33.4409263 13.7537053,33.0553474 12.7903368,33.0553474 C11.8269684,33.0553474 10.9041263,33.4409263 10.2279158,34.1264 M14.2145474,38.1130316 C13.4167579,38.8714526 12.1639158,38.8714526 11.3672842,38.1130316 C10.5799158,37.3268211 10.5810737,36.0519789 11.3672842,35.2657684 C12.1534947,34.4795579 13.4283368,34.4795579 14.2145474,35.2657684 C15.0007579,36.0519789 15.0007579,37.3268211 14.2145474,38.1130316" id="Fill-10" fill="#FECC09"></path>
                        </g>
                    </g>
                </g>
            </g>
        </g>
    </g>
</svg>