<?xml version="1.0" encoding="UTF-8"?>
<svg width="115px" height="170px" viewBox="0 0 115 170" version="1.1" xmlns="http://www.w3.org/2000/svg" xmlns:xlink="http://www.w3.org/1999/xlink">
    <!-- Generator: Sketch 63.1 (92452) - https://sketch.com -->
    <title>Group 2</title>
    <desc>Created with Sketch.</desc>
    <g id="Page-1" stroke="none" stroke-width="1" fill="none" fill-rule="evenodd">
        <g id="Urania_StrongerBenefits_Icons" transform="translate(-298.000000, 0.000000)" fill="#0F6057">
            <g id="Group-2" transform="translate(298.482170, 0.758000)">
                <path d="M102.17283,117.351 L102.12083,117.697 C99.4058304,140.437 80.0668304,157.636 57.1678304,157.703 C34.2358304,157.636 14.8978304,140.437 12.1828304,117.697 L12.1308304,117.35 C10.3818304,107.712 12.5668304,97.572 18.6238304,87.208 C32.8998304,62.788 55.3108304,25.463 57.1508304,22.398 C58.8648304,25.249 81.3628304,62.718 95.6798304,87.208 C101.73483,97.571 103.92083,107.712 102.17283,117.351 Z M105.64083,81.387 L105.64083,81.386 C91.0328304,56.396 67.9458304,17.96 66.9528304,16.307 L57.1508304,0 L47.3328304,16.336 C46.3578304,17.96 23.2708304,56.396 8.66283043,81.386 C1.21083043,94.133 -1.45116957,106.867 0.745830432,119.237 C4.22883043,147.673 28.4388304,169.158 57.1678304,169.242 C85.8638304,169.158 110.07483,147.673 113.55783,119.237 C115.75483,106.867 113.09183,94.133 105.64083,81.387 L105.64083,81.387 Z" id="Fill-9"></path>
                <path d="M75.3998304,76.968 C75.2738304,76.732 75.1268304,76.507 74.9668304,76.24 C74.8508304,76.349 74.7708304,76.405 74.7138304,76.479 C71.6898304,80.46 67.6758304,83.082 62.9608304,84.491 C58.6918304,85.767 54.3238304,86.721 49.9808304,87.73 C44.9118304,88.908 39.9398304,90.317 35.2548304,92.657 C27.2818304,96.64 21.7078304,105.99 22.8248304,115.186 C23.1108304,117.54 23.7618304,119.782 24.8508304,121.932 C24.9708304,121.843 25.0568304,121.792 25.1268304,121.725 C30.0978304,116.896 35.9728304,113.487 42.2948304,110.778 C46.6038304,108.931 50.9478304,107.163 55.2058304,105.205 C59.4398304,103.258 63.2448304,100.641 66.2928304,97.065 C67.6068304,95.524 68.7578304,93.845 70.0248304,92.174 C69.9458304,92.377 69.8978304,92.539 69.8248304,92.69 C68.1958304,96.085 66.1488304,99.196 63.5678304,101.95 C59.9478304,105.815 55.5648304,108.622 50.9348304,111.086 C47.5908304,112.865 44.2158304,114.586 40.8808304,116.381 C33.0828304,120.577 26.6488304,126.206 21.4618304,133.152 C22.6298304,135.162 24.0348304,137.179 25.7028304,139.16 C27.4358304,136.023 29.3618304,133.06 31.9488304,130.62 C33.6438304,131.331 35.1768304,132.099 36.7868304,132.629 C42.1948304,134.409 47.7008304,134.381 53.2218304,133.239 C59.5418304,131.931 65.2548304,129.369 69.8478304,124.705 C76.5418304,117.908 79.8278304,109.579 80.5018304,100.18 C81.0898304,91.963 79.2868304,84.224 75.3998304,76.968" id="Fill-11"></path>
            </g>
        </g>
    </g>
</svg>