<?xml version="1.0" encoding="UTF-8"?>
<!DOCTYPE svg PUBLIC "-//W3C//DTD SVG 1.0//EN" "http://www.w3.org/TR/2001/REC-SVG-20010904/DTD/svg10.dtd">
<!-- Creator: CorelDRAW 2018 (64-Bit) -->
<svg xmlns="http://www.w3.org/2000/svg" xml:space="preserve" width="155px" height="155px" version="1.0" style="shape-rendering:geometricPrecision; text-rendering:geometricPrecision; image-rendering:optimizeQuality; fill-rule:evenodd; clip-rule:evenodd"
viewBox="0 0 155 155"
 xmlns:xlink="http://www.w3.org/1999/xlink">
 <defs>
  <style type="text/css">
   <![CDATA[
    .fil1 {fill:#00AE9D}
    .fil0 {fill:white}
   ]]>
  </style>
 </defs>
 <g id="Слой_x0020_1">
  <metadata id="CorelCorpID_0Corel-Layer"/>
  <g>
   <path class="fil0" d="M59.5 124.68c0,0.07 0.03,0.13 0.07,0.18 0.03,0.02 0.06,0.04 0.1,0.05 0.03,0.02 0.02,0 0.03,0l0.01 0c0.07,0.03 0.14,0.03 0.22,0.05 0.14,0.02 0.29,0.03 0.45,0.03 1.48,0 2.68,-1.09 2.68,-2.44 0,-1.35 -1.2,-2.44 -2.68,-2.44 -0.16,0 -0.31,0.02 -0.45,0.04 -0.08,0.02 -0.15,0.02 -0.22,0.04l-0.04 0c-0.04,0.02 -0.07,0.03 -0.1,0.05 -0.04,0.05 -0.07,0.11 -0.07,0.18l0 4.26 0 0zm0.6 1.03c-0.02,-0.04 -0.04,-0.06 -0.07,-0.09 -0.05,-0.04 -0.11,-0.07 -0.18,-0.07 0,0 0,0 -0.01,0 -0.15,0 -0.27,0.11 -0.27,0.25l0 3.65c0,0.94 -0.84,1.7 -1.87,1.7l-2.76 0c-1.04,0 -1.88,-0.76 -1.88,-1.7l0 -17.27c0,-0.94 0.84,-1.7 1.88,-1.7l6.75 0c4.34,0 7.87,3.21 7.87,7.16 0,2.36 -1.25,4.45 -3.18,5.75l2.45 5.4c0.1,0.2 0.15,0.43 0.15,0.66 0,0.95 -0.85,1.71 -1.88,1.71l-3.4 0c-0.8,0 -1.47,-0.45 -1.75,-1.08l-1.93 -4.36 0 -0.01 0.08 0zm-28.16 -1.65c0,-0.94 -0.84,-1.71 -1.88,-1.71l-3.19 0c-0.16,0 -0.28,-0.11 -0.28,-0.25l0 -0.99c0,-0.14 0.12,-0.25 0.28,-0.25l5.52 0c1.04,0 1.88,-0.76 1.88,-1.7l0 -2.55c0,-0.94 -0.84,-1.71 -1.88,-1.71l-10.43 0c-1.04,0 -1.88,0.77 -1.88,1.71l0 17.27c0,0.95 0.84,1.71 1.88,1.71l10.43 0c1.04,0 1.88,-0.77 1.88,-1.71l0 -2.54c0,-0.95 -0.84,-1.71 -1.88,-1.71l-5.52 0c-0.16,0 -0.28,-0.11 -0.28,-0.25l0 -0.99c0,-0.14 0.12,-0.25 0.28,-0.25l3.19 0c1.04,0 1.88,-0.77 1.88,-1.71l0 -2.37 0 0zm-22.93 0.62c0,0.07 0.03,0.13 0.08,0.18 0.02,0.02 0.05,0.04 0.08,0.05 0.02,0 0.03,0 0.04,0 0,0 0.01,0 0.01,0 0.08,0.03 0.14,0.03 0.22,0.05 0.15,0.02 0.3,0.03 0.45,0.03 1.48,0 2.67,-1.09 2.67,-2.44 0,-1.35 -1.19,-2.44 -2.67,-2.44 -0.15,0 -0.3,0.02 -0.45,0.04 -0.07,0.02 -0.14,0.02 -0.22,0.04l-0.05 0c-0.03,0.02 -0.06,0.03 -0.08,0.05 -0.05,0.04 -0.08,0.11 -0.08,0.18l0 4.26 0 0zm0.08 1.73l0 3.03c0,0.95 -0.84,1.71 -1.87,1.71l-2.84 0c-1.04,0 -1.88,-0.76 -1.88,-1.71l0 -17.26c0,-0.94 0.84,-1.71 1.88,-1.71l6.01 0c4.78,0 8.66,3.53 8.66,7.88 0,4.35 -3.88,7.88 -8.66,7.88 -0.23,0 -0.47,-0.02 -0.69,-0.03 -0.12,0 -0.24,-0.02 -0.35,-0.03l-0.05 0c-0.17,0 -0.29,0.11 -0.29,0.25l0.08 -0.01zm31.18 -5.3l0 12.77c0,0.94 0.85,1.71 1.89,1.71l2.75 0c1.04,0 1.88,-0.77 1.88,-1.71l0 -12.78c0,-0.13 0.12,-0.24 0.27,-0.24l2.7 0c1.04,0 1.88,-0.76 1.88,-1.71l0 -2.54c0,-0.95 -0.84,-1.71 -1.88,-1.71l-12.46 0c-1.04,0 -1.88,0.76 -1.88,1.71l0 2.54c0,0.95 0.84,1.71 1.88,1.71l2.71 0c0.15,0 0.26,0.11 0.26,0.24l0 0.01zm61.51 6.02c0,-0.13 0.12,-0.24 0.27,-0.24 0.08,0 0.16,0.03 0.2,0.09l8.19 8.21c0.01,0.02 0.03,0.03 0.05,0.05 0.23,0.21 0.57,0.35 0.94,0.35l1.78 0c0.82,0 1.47,-0.6 1.47,-1.34l0 -17.64c0,-0.94 -0.84,-1.71 -1.88,-1.71l-2.75 0c-1.04,0 -1.88,0.77 -1.88,1.71l0 6.64c0,0.13 -0.12,0.25 -0.27,0.25 -0.07,0 -0.13,-0.03 -0.18,-0.08l-0.01 0 -8.1 -8.1c-0.02,-0.02 -0.03,-0.03 -0.05,-0.05 -0.26,-0.22 -0.59,-0.35 -0.93,-0.35 0,0 0,0 -0.01,0l-1.88 0c-0.81,0 -1.47,0.6 -1.47,1.34l0 17.64c0,0.94 0.84,1.71 1.88,1.71l2.76 0c1.03,0 1.87,-0.77 1.87,-1.71l0 -6.77zm-19.5 -6.96c-3.08,0 -5.58,2.27 -5.58,5.08 0,2.8 2.5,5.08 5.58,5.08 3.08,0 5.58,-2.28 5.58,-5.08 0,-2.81 -2.5,-5.08 -5.58,-5.08l0 0zm12.01 5.08c0,6.04 -5.38,10.94 -12.01,10.94 -6.64,0 -12.01,-4.9 -12.01,-10.94 0,-6.04 5.37,-10.94 12.01,-10.94 6.63,0 12.01,4.9 12.01,10.94l0 0zm47.9 1.22c-1.53,-1.23 -2.5,-3.05 -2.5,-5.06 0,-3.73 3.31,-6.76 7.4,-6.76 2.9,0 3.57,0.33 4.25,0.61 0.68,0.28 1.16,0.92 1.16,1.65l0 2.16c0,0.9 -0.8,1.63 -1.79,1.63 -0.99,0 -1.35,-0.45 -2.25,-0.45 -0.91,0 -1.65,0.68 -1.65,1.51 0,0.41 0.18,0.79 0.48,1.06 0.08,0.07 0.16,0.12 0.25,0.18 0.72,0.51 1.69,1.18 2.02,1.5 0.02,0.03 0.03,0.03 0.04,0.04 1.32,1.22 2.13,2.89 2.13,4.74 0,3.73 -3.32,6.75 -7.41,6.75 -2.89,0 -3.57,-0.32 -4.24,-0.6 -0.69,-0.29 -1.16,-0.92 -1.16,-1.64l0 -2.17c0,-0.9 0.8,-1.63 1.78,-1.63 0.99,0 1.35,0.45 2.26,0.45 0.91,0 1.65,-0.68 1.65,-1.5 0,-0.5 -0.27,-0.95 -0.68,-1.22 -0.29,-0.2 -1.29,-0.89 -1.74,-1.25l0 0zm-13.52 1.34l-3.35 0c-0.16,0 -0.28,-0.12 -0.28,-0.25 0,-0.03 0.01,-0.05 0.02,-0.08l1.68 -4.43c0.03,-0.11 0.13,-0.17 0.24,-0.17 0,0 0,0 0.01,0 0.12,0 0.22,0.06 0.26,0.17l1.68 4.43c0,0.03 0,0.05 0,0.08 0,0.13 -0.11,0.25 -0.26,0.25l0 0zm9.52 6.2l0.01 0 -6.69 -18.18c-0.2,-0.54 -0.75,-0.93 -1.41,-0.93l-6.22 0c-0.65,0 -1.21,0.39 -1.41,0.93l-6.67 18.18c-0.05,0.11 -0.08,0.24 -0.08,0.37 0,0.67 0.6,1.21 1.35,1.21l3.94 0c0.65,0 1.21,-0.38 1.41,-0.92l0 -0.02c0,0 0.01,0 0.01,-0.02l0.32 -0.86c0.03,-0.1 0.14,-0.17 0.26,-0.17l7.97 0c0.12,0 0.22,0.07 0.25,0.17l0.32 0.86c0.01,0 0.01,0.02 0.01,0.02l0 0.02c0.2,0.54 0.76,0.92 1.42,0.92l3.94 0c0.74,0 1.33,-0.54 1.33,-1.21 0,0 0,-0.01 0,-0.01 0,-0.12 -0.02,-0.25 -0.06,-0.36l0 0zm0 0l0 0 0 0z"/>
  </g>
  <path class="fil1" d="M96.41 77.74c0,10.86 -8.78,19.65 -19.59,19.65 -10.82,0 -19.59,-8.79 -19.59,-19.65 0,-10.86 8.77,-19.67 19.59,-19.67 10.81,0 19.59,8.81 19.59,19.67z"/>
  <g>
   <path class="fil1" d="M93.75 48.31l-13.18 -22.94 26.37 0 -13.19 22.94zm-16.93 52.35c-12.61,0 -22.83,-10.26 -22.83,-22.92 0,-4.23 1.14,-8.2 3.13,-11.61l19.7 -34.24 19.69 34.24c2.06,3.51 3.14,7.51 3.14,11.58 0,0.01 0,0.02 0,0.03 0,12.66 -10.22,22.92 -22.83,22.92l0 0zm20.68 -45.85l20.68 -35.95 -41.36 0 -25.27 43.93c-2.65,4.52 -4.06,9.67 -4.06,14.91 0,0.01 0,0.03 0,0.04 0,16.25 13.13,29.43 29.33,29.43 16.19,0 29.32,-13.18 29.32,-29.43 0,-5.46 -1.47,-10.57 -4.06,-14.94l-4.58 -7.98 0 -0.01z"/>
  </g>
 </g>
</svg>
