<?xml version="1.0" encoding="UTF-8"?>
<!DOCTYPE svg PUBLIC "-//W3C//DTD SVG 1.0//EN" "http://www.w3.org/TR/2001/REC-SVG-20010904/DTD/svg10.dtd">
<!-- Creator: CorelDRAW 2018 (64-Bit) -->
<svg xmlns="http://www.w3.org/2000/svg" xml:space="preserve" width="310px" height="165px" version="1.0" style="shape-rendering:geometricPrecision; text-rendering:geometricPrecision; image-rendering:optimizeQuality; fill-rule:evenodd; clip-rule:evenodd"
viewBox="0 0 310 165"
 xmlns:xlink="http://www.w3.org/1999/xlink">
 <defs>
  <style type="text/css">
   <![CDATA[
    .fil1 {fill:#00B09B}
    .fil0 {fill:white}
   ]]>
  </style>
 </defs>
 <g id="Слой_x0020_1">
  <metadata id="CorelCorpID_0Corel-Layer"/>
  <path class="fil0" d="M16.84 73.81l0 4.39c0,1.37 -1.11,2.48 -2.48,2.48l-3.62 0c-1.37,0 -2.48,-1.11 -2.48,-2.48 0,0 0,0 0,0l0 -24.95c0,-1.36 1.11,-2.47 2.48,-2.47l7.92 -0.01c6.29,0 11.39,5.1 11.39,11.39 0,6.29 -5.1,11.39 -11.39,11.39 -0.31,0 -0.62,-0.02 -0.92,-0.04 -0.16,-0.01 -0.3,-0.03 -0.46,-0.04 -0.01,0 -0.03,0 -0.04,-0.01l-0.05 0c0,0 0,0 0,0 -0.19,0 -0.35,0.16 -0.35,0.35zm0.35 -9.26c0,0.11 0.04,0.19 0.1,0.25 0.04,0.03 0.08,0.06 0.12,0.08 0.02,0.01 0.03,0.01 0.05,0.01 0,0 0.01,0 0.01,0.01 0.09,0.02 0.19,0.04 0.29,0.06 0.18,0.03 0.36,0.04 0.55,0.04 1.94,0 3.52,-1.58 3.52,-3.52 0,-1.93 -1.55,-3.5 -3.48,-3.52 -0.21,0 -0.41,0.01 -0.59,0.04 -0.1,0.03 -0.2,0.04 -0.29,0.07 -0.01,0 -0.01,0 -0.01,0 -0.02,0 -0.04,0 -0.05,0.01 -0.04,0.02 -0.08,0.05 -0.12,0.08 -0.06,0.07 -0.1,0.16 -0.1,0.26l0 6.13zm66.79 8.25l-0.01 -0.01c-0.02,-0.04 -0.04,-0.08 -0.07,-0.11 -0.07,-0.07 -0.16,-0.11 -0.26,-0.11 0,0 0,0 0,0 0,0 0,0 0,0 -0.19,0 -0.35,0.16 -0.35,0.35l0 5.28c0,1.37 -1.11,2.48 -2.47,2.48l-3.63 0c-1.37,0 -2.47,-1.11 -2.48,-2.48l0 -24.95c0,-1.36 1.11,-2.47 2.48,-2.47l8.88 -0.01c5.72,0.01 10.35,4.64 10.35,10.36 0,3.27 -1.55,6.36 -4.18,8.31l3.23 7.79c0.13,0.31 0.19,0.64 0.19,0.97 0,1.36 -1.1,2.47 -2.46,2.48l-4.38 0c-1.02,-0.01 -1.93,-0.64 -2.3,-1.59l-2.54 -6.29zm4.15 -0.02c0,0.11 0.05,0.19 0.11,0.25 0.03,0.03 0.07,0.06 0.11,0.08 0.02,0.01 0.03,0.01 0.05,0.01 0.01,0 0.01,0 0.01,0.01 0.1,0.02 0.19,0.04 0.29,0.06 0.2,0.03 0.4,0.05 0.61,0.05 1.94,0 3.52,-1.58 3.52,-3.53 0,-1.94 -1.58,-3.52 -3.52,-3.52 -0.01,0 -0.01,0 -0.02,0 -0.2,0 -0.4,0.01 -0.59,0.04 -0.1,0.03 -0.19,0.04 -0.29,0.07 0,0 0,0 -0.01,0 -0.02,0 -0.03,0 -0.05,0.01 -0.04,0.02 -0.07,0.05 -0.11,0.08 -0.07,0.07 -0.1,0.16 -0.11,0.26l0 6.13zm-41.12 -8.78c0,-1.36 -1.11,-2.46 -2.47,-2.46l-4.2 0c-0.2,0 -0.36,-0.16 -0.36,-0.36l0 -1.44c0,-0.19 0.16,-0.34 0.36,-0.34l7.27 0c1.36,0 2.47,-1.11 2.47,-2.48l0 -3.68c0,-1.36 -1.11,-2.47 -2.47,-2.47l-13.73 0c-1.37,0 -2.47,1.11 -2.47,2.47l0 24.96c0,1.37 1.1,2.48 2.47,2.48l13.73 0c1.36,0 2.47,-1.11 2.47,-2.48l0 -3.67c0,-1.37 -1.11,-2.48 -2.47,-2.48l-7.27 0c-0.01,0 -0.01,0 -0.02,0 -0.19,0 -0.34,-0.15 -0.34,-0.34l0 -1.44c0,-0.19 0.16,-0.36 0.36,-0.36l4.2 0c1.36,0 2.47,-1.11 2.47,-2.47l0 -3.44zm10.98 -4.26l0 18.46c0,1.37 1.11,2.48 2.47,2.48l3.63 0c1.36,0 2.47,-1.11 2.47,-2.48l0 -18.46c0,-0.19 0.16,-0.34 0.35,-0.34l3.57 0c1.36,0 2.47,-1.11 2.47,-2.48l0 -3.68c0,-1.36 -1.11,-2.48 -2.48,-2.48l-16.4 0c-1.37,0 -2.47,1.12 -2.47,2.48l0 3.68c0,1.36 1.1,2.48 2.47,2.48l3.56 0c0,0 0.01,0 0.01,0 0.19,0 0.35,0.15 0.35,0.34l0 0zm71.09 5.98c0,8.74 -7.08,15.81 -15.8,15.81 -8.73,0 -15.82,-7.07 -15.82,-15.81 0,-8.73 7.08,-15.81 15.81,-15.81 8.73,0 15.81,7.08 15.81,15.81l0 0zm-47.42 -7.34c-4.06,0 -7.35,3.29 -7.35,7.35 0,4.05 3.29,7.34 7.35,7.34 4.06,0 7.35,-3.29 7.35,-7.34 0,-4.06 -3.29,-7.35 -7.35,-7.35l0 0zm57.28 10.07c0,-0.19 0.16,-0.35 0.36,-0.35 0,0 0.01,0 0.01,0 0.1,0 0.19,0.04 0.26,0.12l10.77 11.87c0.02,0.02 0.04,0.06 0.06,0.07 0.33,0.33 0.77,0.52 1.23,0.52l2.36 0c1.07,0 1.94,-0.88 1.94,-1.95 0,0 0,0 0,0l0 -25.49c-0.01,-1.36 -1.11,-2.47 -2.48,-2.47 0,0 0,0 0,0l-3.63 0c-1.36,0 -2.47,1.11 -2.47,2.47l0 9.57c0,0 0,0.01 0,0.01 0,0.19 -0.16,0.34 -0.35,0.34 0,0 0,0 0,0 0,0 -0.01,0 -0.01,0 -0.09,0 -0.19,-0.04 -0.25,-0.11l-10.66 -11.7c-0.02,-0.02 -0.04,-0.04 -0.06,-0.07 -0.33,-0.32 -0.77,-0.51 -1.23,-0.51 0,0 0,0 -0.01,0l-2.47 0c0,0 0,0 0,0 -1.07,0 -1.93,0.87 -1.93,1.94 0,0 0,0 0,0.01l0 25.48c0,1.37 1.1,2.48 2.46,2.48l3.64 0c1.36,0 2.47,-1.11 2.47,-2.48l0 -9.75 -0.01 0zm47.92 9.93l-8.78 -26.28c-0.27,-0.79 -1.02,-1.32 -1.86,-1.33l-8.19 0c-0.84,0.01 -1.59,0.54 -1.86,1.33l-8.78 26.28c-0.06,0.18 -0.09,0.36 -0.09,0.54 0,0.97 0.79,1.76 1.76,1.76l5.19 0c0.86,0 1.59,-0.57 1.85,-1.34l0.02 -0.02 0.01 -0.02 0.41 -1.25c0.04,-0.14 0.18,-0.25 0.33,-0.25 0,0 0,0 0,0l10.5 0c0.16,0 0.3,0.1 0.34,0.25l0.41 1.25 0.01 0.02 0.01 0.02c0.27,0.8 1.02,1.34 1.86,1.34l5.19 0c0.97,0 1.76,-0.79 1.76,-1.77 0,0 0,0 0,0 0,0 0,0 0,0 0,-0.18 -0.03,-0.36 -0.09,-0.53l0 0zm-12.44 -8.42l-4.41 0c0,0 0,0 0,0 -0.2,0 -0.35,-0.16 -0.35,-0.35 0,-0.05 0,-0.08 0.01,-0.12l2.21 -6.41c0.05,-0.15 0.18,-0.25 0.33,-0.25l0.01 0c0.15,0 0.29,0.11 0.33,0.25l2.21 6.41c0.01,0.04 0.02,0.07 0.02,0.12 0,0.19 -0.16,0.35 -0.36,0.35 0,0 0,0 0,0zm17.71 -2.47c-2.1,-1.86 -3.29,-4.52 -3.29,-7.31 0,-5.39 4.37,-9.77 9.76,-9.77 3.79,0 4.68,0.48 5.57,0.88 0.89,0.41 1.52,1.32 1.52,2.38l0 3.12c0,1.31 -1.05,2.37 -2.35,2.37 -1.3,0 -1.77,-0.66 -2.96,-0.66 -1.2,0.01 -2.17,0.98 -2.17,2.18 0,0.59 0.24,1.14 0.63,1.53 0.1,0.1 0.22,0.19 0.33,0.28 0.95,0.71 2.22,1.7 2.66,2.16 1.83,1.82 2.86,4.3 2.86,6.88 0,0.01 0,0.02 0,0.02 0,0 0,0.01 0,0.01 0,5.39 -4.37,9.75 -9.76,9.76 -3.81,0 -4.69,-0.47 -5.59,-0.88 -0.92,-0.43 -1.52,-1.35 -1.52,-2.37l0 -3.13c0,-1.3 1.06,-2.36 2.35,-2.36 1.3,0 1.77,0.64 2.97,0.64 0,0 0,0 0,0 1.2,0 2.17,-0.97 2.17,-2.17 0,-0.69 -0.33,-1.34 -0.89,-1.75 -0.38,-0.29 -1.7,-1.28 -2.29,-1.81l0 0z"/>
  <polygon class="fil0" points="246.85,47.44 211.31,109.69 215.63,134.43 226.03,146.02 245.47,156.23 275.12,143.46 286.32,119.11 282.59,103.6 252.35,49.8 "/>
  <path class="fil1" d="M276.68 117.03c0,15.68 -12.72,28.41 -28.41,28.41 -15.7,0 -28.42,-12.73 -28.42,-28.41 0,-15.69 12.72,-28.42 28.42,-28.42 15.69,0 28.41,12.73 28.41,28.42z"/>
  <path class="fil1" d="M278.27 83.9l29.99 -51.97 -59.99 0 -36.66 63.51c-3.85,6.5 -5.88,13.94 -5.88,21.5 0,0.02 0,0.07 0,0.09 0,23.49 19.04,42.54 42.54,42.54 23.48,0 42.53,-19.05 42.53,-42.54 0,-7.89 -2.14,-15.27 -5.89,-21.59l-6.64 -11.54zm-96.65 77.78c-18.3,0 -33.13,-14.83 -33.13,-33.11 0,-6.13 1.66,-11.86 4.56,-16.78l28.57 -49.49 28.56 49.49c2.98,5.07 4.56,10.84 4.56,16.72 0,0.02 0,0.04 0,0.06 0,18.28 -14.84,33.11 -33.12,33.11l0 0zm53.12 -125.55l-19.12 -33.13 38.25 0 -19.13 33.13z"/>
  <polygon class="fil0" points="253.53,41.36 272.77,74.93 292.21,41.16 "/>
 </g>
</svg>
