<?xml version="1.0" encoding="UTF-8"?>
<svg width="59px" height="44px" viewBox="0 0 59 44" version="1.1" xmlns="http://www.w3.org/2000/svg" xmlns:xlink="http://www.w3.org/1999/xlink">
    <!-- Generator: Sketch 60 (88103) - https://sketch.com -->
    <title>Group 9</title>
    <desc>Created with Sketch.</desc>
    <defs>
        <polygon id="path-1" points="0 0.0139818182 59.0638224 0.0139818182 59.0638224 12.9996182 0 12.9996182"></polygon>
        <polygon id="path-3" points="0.211780133 0.240676471 44.6514551 0.240676471 44.6514551 40.9634471 0.211780133 40.9634471"></polygon>
    </defs>
    <g id="PETRONAS-Arbor" stroke="none" stroke-width="1" fill="none" fill-rule="evenodd">
        <g id="Desktop" transform="translate(-232.000000, -2682.000000)">
            <g id="Group-14" transform="translate(0.000000, 2484.000000)">
                <g id="Group-11" transform="translate(140.000000, 115.000000)">
                    <g id="Group-2" transform="translate(0.000000, 83.000000)">
                        <g id="Group-9" transform="translate(92.000000, 0.000000)">
                            <g id="Group-3" transform="translate(0.000000, 31.000000)">
                                <mask id="mask-2" fill="white">
                                    <use xlink:href="#path-1"></use>
                                </mask>
                                <g id="Clip-2"></g>
                                <path d="M58.259617,0.940527273 C58.0706809,0.851436364 57.8702553,0.806890909 57.6647234,0.806890909 C57.1247234,0.806890909 56.6255745,1.12252727 56.3945106,1.60998182 C53.6906809,7.34361818 49.7038723,10.2518 44.5438723,10.2518 C42.3928085,10.2518 39.9838723,9.74652727 37.3847234,8.74998182 L19.1830213,1.24216364 C17.3217447,0.426345455 15.3685532,0.0139818182 13.3681277,0.0139818182 C11.5783404,0.0139818182 9.80897872,0.346163636 8.11110638,1.00289091 C4.51110638,2.39652727 1.67195745,5.09343636 0.119617021,8.59852727 C-0.193148936,9.30234545 0.128553191,10.1283455 0.834510638,10.4388909 C1.01706383,10.5190727 1.20855319,10.5598 1.40514894,10.5598 C1.9566383,10.5598 2.45961702,10.2327091 2.68174468,9.72616364 C3.93025532,6.90452727 6.21791489,4.73198182 9.1247234,3.60561818 C10.4919574,3.07743636 11.9153617,2.80889091 13.3566383,2.80889091 C14.9791915,2.80889091 16.5685532,3.14616364 18.0825957,3.80925455 L36.3455745,11.3450727 C39.2089787,12.4408909 41.9434468,12.9996182 44.466,12.9996182 C50.7813191,12.9996182 55.7830213,9.47161818 58.9311064,2.79743636 C59.2591915,2.09998182 58.9579149,1.26761818 58.259617,0.940527273" id="Fill-1" fill="#FECC09" mask="url(#mask-2)"></path>
                            </g>
                            <path d="M29.9993772,13 C25.038198,13 21,17.261341 21,22.500652 C21,27.738659 25.038198,32 29.9993772,32 C34.9630475,32 39,27.738659 39,22.500652 C39,17.261341 34.9630475,13 29.9993772,13 M29.9993772,29.78718 C26.1891219,29.78718 23.0913432,26.5181525 23.0913432,22.500652 C23.0913432,18.4805435 26.1891219,15.2102121 29.9993772,15.2102121 C33.8096326,15.2102121 36.9074113,18.4805435 36.9074113,22.500652 C36.9074113,26.5181525 33.8096326,29.78718 29.9993772,29.78718" id="Fill-4" fill="#FECC09"></path>
                            <g id="Group-8" transform="translate(7.000000, 0.000000)">
                                <mask id="mask-4" fill="white">
                                    <use xlink:href="#path-3"></use>
                                </mask>
                                <g id="Clip-7"></g>
                                <path d="M44.6411571,22.2432706 L44.2850143,18.3808588 C44.1705857,17.1439765 43.1445857,16.1549765 41.8961571,16.0828882 C41.1491571,16.0386235 40.3815857,15.9994176 39.6127286,15.9665353 L39.3568714,15.9602118 L39.2707286,15.7224471 C38.7950143,14.5209765 38.1791571,13.3587118 37.4424429,12.2723294 L37.3048714,12.0661824 L37.4373,11.8613 C37.8448714,11.2188294 38.2511571,10.5713 38.6407286,9.93388824 C39.2913,8.87406471 39.0534429,7.4753 38.0917286,6.67853529 L35.0857286,4.19212353 C34.5650143,3.76212353 33.8977286,3.55977059 33.2175857,3.62047647 C32.6685857,3.6698 32.1645857,3.88353529 31.7608714,4.23891765 C31.2028714,4.73341765 30.6333,5.24309412 30.0663,5.76162353 L29.8837286,5.9273 L29.6561571,5.82991765 C28.4475857,5.30506471 27.1837286,4.91300588 25.8980143,4.66385882 L25.6563,4.61706471 L25.5984429,4.3793 C25.4300143,3.63565294 25.2538714,2.89200588 25.0764429,2.16732941 C24.7948714,1.03668235 23.7521571,0.239917647 22.5937286,0.239917647 C22.5178714,0.239917647 22.4433,0.243711765 22.3700143,0.250035294 L18.4755857,0.596564706 C17.2258714,0.707858824 16.2307286,1.72468235 16.1600143,2.96156471 C16.1163,3.70394706 16.0790143,4.46656471 16.0481571,5.22665294 L16.0391571,5.47327059 L15.8077286,5.5618 C14.5850143,6.03606471 13.4124429,6.64438824 12.3247286,7.37159412 L12.1177286,7.50691765 L11.9081571,7.37791765 C11.2575857,6.97194706 10.6018714,6.56724118 9.96158571,6.17897647 C9.49872857,5.89947647 8.95487143,5.77553529 8.41615714,5.82612353 C7.73087143,5.88682941 7.11501429,6.20427059 6.6843,6.71900588 L4.18101429,9.69485882 C3.38001429,10.6497118 3.40187143,12.0699765 4.23115714,12.9970059 C4.7313,13.5522118 5.25072857,14.1200647 5.76887143,14.6803294 L5.93472857,14.8561235 L5.84344286,15.0812412 C5.31115714,16.2827118 4.91772857,17.5347706 4.67087143,18.8058 L4.61815714,19.0511529 L4.37515714,19.1030059 C3.62687143,19.2686824 2.87987143,19.4432118 2.15344286,19.6202706 C0.938442857,19.9111529 0.107871429,21.0645647 0.2223,22.3039765 L0.577157143,26.1638588 C0.6903,27.4032706 1.71758571,28.3922706 2.96472857,28.4630941 L2.96601429,28.4630941 C3.71301429,28.5086235 4.48187143,28.5453 5.24944286,28.5781824 L5.4963,28.5895647 L5.58887143,28.8172118 C6.05558571,29.9971824 6.65215714,31.1316235 7.36572857,32.1939765 L10.0760143,32.8617412 C10.1788714,32.2218 10.0310143,31.5679471 9.66201429,31.0393 C8.93044286,29.9971824 8.33387143,28.8703294 7.88772857,27.6890941 C7.52515714,26.7380353 6.62772857,26.0968294 5.59915714,26.0550941 C4.8843,26.0285353 4.1643,25.9918588 3.44944286,25.9526529 L3.12287143,25.9336824 L3.08944286,25.6124471 L2.76544286,22.0826529 L3.0843,22.0042412 C3.77601429,21.8410941 4.48187143,21.6804765 5.1813,21.5236529 C6.18415714,21.3023294 6.95172857,20.5131529 7.13687143,19.5127706 C7.35801429,18.2758882 7.74115714,17.0617706 8.26701429,15.9033 C8.6913,14.9762706 8.51387143,13.8936824 7.81315714,13.1424471 C7.3233,12.6175941 6.8373,12.0864176 6.36415714,11.5615647 L6.1443,11.3212706 L8.64372857,8.35174118 L8.9253,8.51994706 C9.52958571,8.88924118 10.1467286,9.26865294 10.7523,9.65059412 C11.2254429,9.95159412 11.8053,10.0856529 12.3504429,10.0388588 C12.7875857,9.99965294 13.2093,9.84788824 13.5705857,9.60000588 C14.6197286,8.87912353 15.7550143,8.28850588 16.9468714,7.84585882 C17.9060143,7.49047647 18.5501571,6.59885882 18.5913,5.57824118 C18.6183,4.86115294 18.6517286,4.14406471 18.6915857,3.44594706 L18.7057286,3.12218235 L22.5950143,2.77565294 L22.6734429,3.09182941 C22.8418714,3.77477059 23.0051571,4.47288824 23.1633,5.17100588 C23.3883,6.16885882 24.1854429,6.93147647 25.1934429,7.11106471 C26.4483,7.33744706 27.6761571,7.71812353 28.8358714,8.24171176 C29.2357286,8.4213 29.6857286,8.49718235 30.1113,8.45797647 C30.6705857,8.40865294 31.2054429,8.17341765 31.6155857,7.79527059 C32.1453,7.31088824 32.6801571,6.82777059 33.2060143,6.36109412 L33.4580143,6.13597647 L33.7125857,6.35603529 L36.4550143,8.62491765 L36.2801571,8.90062353 C35.9150143,9.49377059 35.5318714,10.1033588 35.1423,10.7091529 C34.5920143,11.5716824 34.6138714,12.6694471 35.2001571,13.5066824 C35.9291571,14.5475353 36.5257286,15.6756529 36.9744429,16.8581529 C37.3344429,17.8079471 38.2331571,18.4491529 39.2617286,18.4908882 C39.9830143,18.5199765 40.7094429,18.5541235 41.4127286,18.5945941 L41.7380143,18.6135647 L41.7701571,18.9335353 L42.0941571,22.4645941 L41.7765857,22.5417412 C41.0887286,22.7048882 40.3828714,22.8667706 39.6795857,23.0223294 C38.6754429,23.2449176 37.9065857,24.0340941 37.7253,25.0344765 C37.4990143,26.2802118 37.1171571,27.4930647 36.5938714,28.6426824 C36.1695857,29.5684471 36.3483,30.6535647 37.0477286,31.4048 C37.5401571,31.9334471 38.0261571,32.4646235 38.4967286,32.9844176 L38.7178714,33.2247118 L36.2197286,36.2018294 L35.9343,36.0247706 C35.3210143,35.6516824 34.7090143,35.2735353 34.1073,34.8953882 C33.6380143,34.5981824 33.0851571,34.4603294 32.5078714,34.5083882 C32.0771571,34.5450647 31.6541571,34.6955647 31.2915857,34.9459765 C30.2463,35.6668588 29.1110143,36.2562118 27.9140143,36.7001235 C26.9561571,37.0580353 26.3120143,37.9483882 26.2708714,38.9690059 C26.2618714,39.2295353 26.2490143,39.4913294 26.2348714,39.7543882 L26.2233,40.0060647 L27.0371571,40.4133 L28.7343,40.9634471 C28.7625857,40.4234176 28.7895857,39.8758 28.8114429,39.3193294 L28.8255857,39.0727118 L29.0531571,38.9841824 C30.2733,38.5099176 31.4458714,37.9003294 32.5361571,37.1743882 L32.7457286,37.0340059 L32.9565857,37.1718588 C33.6007286,37.5740353 34.2577286,37.9787412 34.9031571,38.3682706 C35.3660143,38.6452412 35.8995857,38.7653882 36.4460143,38.7185941 C37.1325857,38.6578882 37.7484429,38.3404471 38.1778714,37.8257118 L40.6811571,34.8511235 C41.4821571,33.8975353 41.4577286,32.4772706 40.6271571,31.5489765 C40.1321571,30.9963 39.6140143,30.4284471 39.0920143,29.8669176 L38.9261571,29.6860647 L39.0200143,29.4647412 C39.5523,28.2594765 39.9444429,27.0074176 40.1900143,25.7389176 L40.2388714,25.4986235 L40.4831571,25.4429765 C41.2314429,25.2760353 41.9797286,25.1027706 42.7113,24.9269765 C43.9237286,24.6360941 44.7543,23.4814176 44.6411571,22.2432706" id="Fill-6" fill="#FECC09" mask="url(#mask-4)"></path>
                            </g>
                        </g>
                    </g>
                </g>
            </g>
        </g>
    </g>
</svg>