<?xml version="1.0" encoding="UTF-8"?>
<svg width="31px" height="43px" viewBox="0 0 31 43" version="1.1" xmlns="http://www.w3.org/2000/svg" xmlns:xlink="http://www.w3.org/1999/xlink">
    <!-- Generator: Sketch 60 (88103) - https://sketch.com -->
    <title>Group 6</title>
    <desc>Created with Sketch.</desc>
    <defs>
        <polygon id="path-1" points="0 0.33 30.6066316 0.33 30.6066316 42.8417579 0 42.8417579"></polygon>
    </defs>
    <g id="PETRONAS-Arbor" stroke="none" stroke-width="1" fill="none" fill-rule="evenodd">
        <g id="Desktop" transform="translate(-858.000000, -2683.000000)">
            <g id="Group-14" transform="translate(0.000000, 2484.000000)">
                <g id="Group-11" transform="translate(140.000000, 115.000000)">
                    <g id="Group-2" transform="translate(0.000000, 83.000000)">
                        <g id="Group-6" transform="translate(718.000000, 0.000000)">
                            <g id="Group-3" transform="translate(0.000000, 0.828011)">
                                <mask id="mask-2" fill="white">
                                    <use xlink:href="#path-1"></use>
                                </mask>
                                <g id="Clip-2"></g>
                                <path d="M19.2303158,5.01681053 C18.2484211,3.57291579 17.3823158,2.24481053 16.5741053,1.03249474 C16.4583158,0.858810526 16.2846316,0.685126316 16.1121053,0.570494737 C15.4185263,0.108494737 14.4945263,0.338915789 14.0325263,1.03249474 C13.2822105,2.24481053 12.4161053,3.51502105 11.3763158,5.01681053 C6.81421053,11.7152316 0,21.8213368 0,27.5969158 C0,31.8116526 1.73221053,35.6234421 4.50421053,38.3954421 C7.27621053,41.1095474 11.088,42.8417579 15.3038947,42.8417579 C19.5186316,42.8417579 23.3304211,41.1095474 26.1024211,38.3375474 C28.8744211,35.5655474 30.6066316,31.7549158 30.6066316,27.5390211 C30.6066316,21.7634421 23.7924211,11.7152316 19.2303158,5.01681053 M24.024,36.2591263 C21.7707368,38.5112316 18.7104211,39.8393368 15.3038947,39.8393368 C11.8962105,39.8393368 8.83589474,38.4533368 6.58378947,36.2591263 C4.33168421,34.0070211 3.00242105,30.9455474 3.00242105,27.5390211 C3.00242105,22.6874421 9.52831579,13.0433368 13.86,6.63323158 C14.3798947,5.88291579 14.8418947,5.1326 15.3038947,4.49691579 C15.7658947,5.1326 16.2278947,5.88291579 16.7466316,6.63323158 C21.0783158,13.1012316 27.6042105,22.6874421 27.6042105,27.5390211 C27.6042105,30.9455474 26.2182105,34.0070211 24.024,36.2591263" id="Fill-1" fill="#FECC09" mask="url(#mask-2)"></path>
                            </g>
                            <path d="M24.2544211,27.3272421 C23.4462105,27.2693474 22.7526316,27.9050316 22.6947368,28.7132421 C22.638,29.9834526 22.2327368,31.1969263 21.5982105,32.2355579 C20.9625263,33.2753474 20.0385263,34.1993474 18.942,34.7771368 C18.2484211,35.1812421 17.9601053,36.1052421 18.3642105,36.7976632 C18.8262105,37.6070316 19.7502105,37.8374526 20.4426316,37.4333474 C22.0023158,36.5672421 23.2725263,35.2970316 24.1386316,33.8531368 C25.0626316,32.4092421 25.5825263,30.6770316 25.6404211,28.8869263 C25.6983158,28.0775579 25.0626316,27.3851368 24.2544211,27.3272421" id="Fill-4" fill="#FECC09"></path>
                        </g>
                    </g>
                </g>
            </g>
        </g>
    </g>
</svg>