<?xml version="1.0" encoding="UTF-8"?>
<svg width="115px" height="170px" viewBox="0 0 115 170" version="1.1" xmlns="http://www.w3.org/2000/svg" xmlns:xlink="http://www.w3.org/1999/xlink">
    <!-- Generator: Sketch 63.1 (92452) - https://sketch.com -->
    <title>Group</title>
    <desc>Created with Sketch.</desc>
    <g id="Page-1" stroke="none" stroke-width="1" fill="none" fill-rule="evenodd">
        <g id="Urania_StrongerBenefits_Icons" transform="translate(-150.000000, 0.000000)" fill="#0F6057">
            <g id="Group" transform="translate(150.675763, 0.758000)">
                <path d="M102.172237,117.351 L102.121237,117.697 C99.4062369,140.437 80.0662369,157.636 57.1682369,157.703 C34.2362369,157.636 14.8962369,140.437 12.1822369,117.697 L12.1302369,117.35 C10.3822369,107.712 12.5672369,97.572 18.6242369,87.208 C32.8992369,62.786 55.3122369,25.459 57.1512369,22.398 C58.8642369,25.249 81.3632369,62.718 95.6782369,87.208 C101.735237,97.571 103.920237,107.712 102.172237,117.351 Z M105.639237,81.387 L105.639237,81.386 C91.0332369,56.396 67.9462369,17.96 66.9532369,16.307 L57.1512369,0 L47.3322369,16.336 C46.3572369,17.96 23.2702369,56.396 8.66323694,81.386 C1.21123694,94.133 -1.45176306,106.867 0.746236943,119.237 C4.22723694,147.673 28.4382369,169.158 57.1682369,169.242 C85.8642369,169.158 110.075237,147.673 113.557237,119.237 C115.754237,106.867 113.091237,94.133 105.639237,81.387 L105.639237,81.387 Z" id="Fill-3"></path>
                <path d="M59.1752369,133.643 C57.4912369,133.643 56.1212369,132.273 56.1212369,130.588 C56.1212369,128.905 57.4912369,127.535 59.1752369,127.535 C60.8592369,127.535 62.2292369,128.905 62.2292369,130.588 C62.2292369,132.273 60.8592369,133.643 59.1752369,133.643 Z M59.1752369,122.799 C54.8802369,122.799 51.3862369,126.293 51.3862369,130.588 C51.3862369,134.883 54.8802369,138.377 59.1752369,138.377 C63.4702369,138.377 66.9642369,134.883 66.9642369,130.588 C66.9642369,126.293 63.4702369,122.799 59.1752369,122.799 L59.1752369,122.799 Z" id="Fill-5"></path>
                <path d="M77.6802369,105.61 C73.9422369,104.92 70.3242369,104.252 66.7052369,103.586 C65.6842369,103.398 64.6652369,103.201 63.6402369,103.031 C62.8942369,102.906 62.5212369,102.548 62.5291109,101.736 C62.5582369,98.796 62.5302369,95.857 62.5492369,92.917 C62.5582369,91.634 63.0202369,91.194 64.3202369,91.191 C67.9402369,91.18 71.5612369,91.179 75.1812369,91.189 C76.6392369,91.193 77.1962369,91.727 77.2532369,93.18 C77.4052369,96.976 77.5412369,100.772 77.6792369,104.569 C77.6902369,104.881 77.6802369,105.196 77.6802369,105.61 Z M59.3902369,101.898 C54.7302369,101.345 51.1502369,97.315 51.5762369,92.733 C51.6572369,91.86 52.2282369,91.278 53.0222369,91.244 C55.1202369,91.157 57.2242369,91.214 59.3902369,91.214 C59.3902369,94.843 59.3902369,98.366 59.3902369,101.898 Z M83.6902369,116.189 C83.7822369,112.247 83.8462369,113.256 83.8712674,109.314 C83.8742369,108.765 83.6552369,108.205 83.4832369,107.668 C83.2262369,106.863 82.8012369,106.095 82.6552369,105.275 C82.1702369,102.559 81.7842369,99.825 81.3492369,97.101 C81.2432369,96.437 81.2292369,95.927 81.9492369,95.467 C82.4132369,95.171 82.8192369,94.436 82.8532369,93.872 C83.0702369,90.329 82.7482369,86.834 81.1692369,83.593 C80.0562369,81.304 78.4072369,79.685 75.6792369,79.293 C73.4532369,78.973 71.2702369,78.339 69.0782369,77.803 C68.6902369,77.707 68.2522369,77.492 68.0052369,77.194 C65.1692369,73.783 61.5172369,71.6 57.4202369,70.081 C54.1422369,68.866 50.7472369,68.202 47.1612369,67.92 C47.1262369,68.251 47.1002369,68.425 47.0912369,68.599 C46.8822369,73.147 46.6722369,77.695 46.4692369,82.243 C45.9772369,93.239 45.4902369,99.284 44.9952369,110.279 C44.9042369,112.309 44.8922369,112.308 46.8162369,112.707 C46.8162369,114.325 46.8162369,115.952 46.8162369,117.608 C30.4692369,117.608 39.5362369,117.608 28.6152369,117.608 L28.6152369,115.65 L15.4562369,115.65 C15.6382369,117.499 15.9682369,119.602 16.5232369,121.863 C17.1372369,121.767 17.7752369,121.726 18.4422369,121.755 C23.7982369,121.992 27.0172369,126.354 26.4582369,132.607 C29.8962369,133.211 29.1502369,132.729 30.4882369,130.157 C31.4582369,130.157 31.9582369,130.157 32.1982369,130.158 C32.2692369,130.156 32.6892369,130.154 34.1072369,130.149 C34.7452369,130.146 35.1912369,130.335 35.7122369,130.762 C36.2742369,131.221 37.1212369,131.546 37.8482369,131.555 C38.3072369,131.561 38.6622369,131.566 38.9362369,131.571 C39.2252369,131.564 39.4082369,131.557 39.9502369,131.548 C40.7262369,131.536 40.8482369,130.956 41.6182369,130.635 C41.9872369,130.481 42.3512369,130.182 42.7192369,130.178 C46.1972369,130.143 43.8652369,130.156 47.3442369,130.162 C47.5462369,130.162 47.7482369,130.23 48.0382369,130.283 C48.0382369,131.161 48.0382369,132.002 48.0382369,132.911 C48.5262369,132.911 48.9162369,132.911 49.3062369,132.911 C49.7142369,132.911 50.1222369,132.911 50.5362369,132.911 C50.2012369,126.109 53.2172369,121.975 58.5252369,121.751 C60.9342369,121.65 63.0712369,122.356 64.8412369,123.983 C67.4492369,126.379 68.1462369,129.404 67.4512369,132.828 C67.7242369,132.865 67.8982369,132.909 68.0722369,132.909 C71.7292369,132.913 75.3882369,132.958 79.0442369,132.882 C79.9422369,132.863 80.9432369,132.622 81.6902369,132.156 C82.3452369,131.746 83.0792369,130.909 83.1432369,130.202 C83.4312369,127.033 83.5152369,123.842 83.6112369,120.658 C83.6242369,120.21 83.3982369,119.669 83.1072369,119.315 C82.4532369,118.516 82.4632369,117.869 83.2022369,117.174 C83.4562369,116.936 83.6822369,116.526 83.6902369,116.189 L83.6902369,116.189 Z" id="Fill-6"></path>
                <path d="M18.3532369,127.579 C19.8242369,127.798 20.9602369,129.058 20.9602369,130.588 C20.9602369,131.167 20.7892369,131.703 20.5082369,132.165 C21.2692369,133.56 22.1312369,134.962 23.1212369,136.357 C24.6972369,134.931 25.6952369,132.876 25.6952369,130.588 C25.6952369,126.293 22.2012369,122.799 17.9062369,122.799 C17.5252369,122.799 17.1532369,122.836 16.7872369,122.889 C17.1972369,124.4 17.7122369,125.971 18.3532369,127.579" id="Fill-7"></path>
            </g>
        </g>
    </g>
</svg>