<?xml version="1.0" encoding="UTF-8"?>
<svg width="115px" height="170px" viewBox="0 0 115 170" version="1.1" xmlns="http://www.w3.org/2000/svg" xmlns:xlink="http://www.w3.org/1999/xlink">
    <!-- Generator: Sketch 63.1 (92452) - https://sketch.com -->
    <title>Group 3</title>
    <desc>Created with Sketch.</desc>
    <g id="Page-1" stroke="none" stroke-width="1" fill="none" fill-rule="evenodd">
        <g id="Urania_StrongerBenefits_Icons" transform="translate(-2.000000, 0.000000)" fill="#0F6057">
            <g id="Group-3" transform="translate(2.000170, 0.758000)">
                <path d="M102.17283,117.351 L102.11983,117.697 C99.4058304,140.437 80.0658304,157.636 57.1678304,157.703 C34.2358304,157.636 14.8968304,140.437 12.1818304,117.697 L12.1298304,117.35 C10.3818304,107.712 12.5668304,97.572 18.6238304,87.208 C32.8998304,62.786 55.3128304,25.459 57.1518304,22.398 C58.8638304,25.249 81.3628304,62.718 95.6788304,87.208 C101.73583,97.571 103.91983,107.712 102.17283,117.351 Z M105.63983,81.387 L105.63983,81.386 C91.0328304,56.396 67.9458304,17.96 66.9528304,16.307 L57.1518304,0 L47.3328304,16.336 C46.3568304,17.96 23.2698304,56.396 8.66283043,81.386 C1.21083043,94.133 -1.45116957,106.867 0.745830432,119.237 C4.22683043,147.673 28.4378304,169.158 57.1678304,169.242 C85.8638304,169.158 110.07483,147.673 113.55683,119.237 C115.75383,106.867 113.09083,94.133 105.63983,81.387 L105.63983,81.387 Z" id="Fill-1"></path>
                <path d="M74.5238304,133.243 C74.6668304,133.243 74.8098304,133.244 74.9528304,133.243 C76.1028304,133.238 76.1728304,133.17 76.2148304,132.044 C76.2218304,131.872 76.2508304,131.699 76.2328304,131.531 C76.1288304,130.567 76.4968304,130.086 77.4798304,129.751 C80.3668304,128.771 81.9118304,125.842 81.1178304,123.073 C80.5468304,121.083 79.1628304,119.849 77.2948304,119.074 C76.1638304,118.604 75.0328304,118.121 73.9488304,117.557 C73.3078304,117.222 72.7238304,116.684 72.9678304,115.842 C73.2048304,115.025 73.9108304,114.76 74.7028304,114.689 C76.1278304,114.561 77.4948304,114.781 78.7948304,115.371 C79.4118304,115.652 79.7698304,115.475 79.9498304,114.839 C80.1218304,114.236 80.2878304,113.629 80.4958304,113.038 C80.7418304,112.343 80.4748304,111.926 79.8268304,111.718 C79.0948304,111.482 78.3648304,111.194 77.6118304,111.09 C76.7878304,110.978 76.4898304,110.632 76.5078304,109.809 C76.5408304,108.282 76.4508304,108.226 74.9388304,108.201 C74.7668304,108.198 74.5958304,108.197 74.4238304,108.202 C73.4108304,108.239 73.1048304,108.429 73.2088304,109.407 C73.3508304,110.742 72.8878304,111.514 71.5948304,111.817 C71.4608304,111.848 71.3398304,111.941 71.2148304,112.009 C67.8018304,113.872 67.4448304,118.388 70.5558304,120.71 C71.2108304,121.199 71.9848304,121.537 72.7278304,121.894 C73.6008304,122.314 74.5138304,122.652 75.3858304,123.076 C76.1738304,123.459 76.7468304,124.049 76.6758304,125.01 C76.6168304,125.824 75.9878304,126.388 74.9248304,126.636 C73.3008304,127.016 71.8328304,126.467 70.3658304,125.879 C70.0338304,125.746 69.6438304,125.571 69.3228304,125.633 C68.7278304,125.75 68.0818304,128.618 68.5238304,129.039 C68.6838304,129.193 68.8978304,129.316 69.1098304,129.384 C70.0018304,129.674 70.8858304,130.03 71.8038304,130.185 C72.6658304,130.33 72.9018304,130.711 72.8758304,131.543 C72.8238304,133.188 72.9208304,133.244 74.5238304,133.243 Z M56.7116691,120.799 C56.6698304,110.866 64.8348304,102.493 75.3118304,102.712 C85.3798304,102.922 93.0558304,111.441 92.9288304,121.002 C92.7958304,131.073 84.7458304,139.006 74.5468304,138.96119 C64.7148304,138.917 56.6758304,130.731 56.7116691,120.799 L56.7116691,120.799 Z" id="Fill-12"></path>
                <path d="M57.2228304,89.58 C57.1918304,89.999 57.1458304,90.333 57.1458304,90.666 C57.1468304,95.379 57.1658304,100.093 57.1378304,104.806 C57.1358304,105.214 56.9258304,105.691 56.6638304,106.016 C53.8178304,109.555 52.0318304,113.557 51.5998304,118.077 C50.9898304,124.455 52.5938304,130.24 56.5848304,135.311 C56.9218304,135.739 57.4618304,136.098 57.0938304,136.795 C56.7118304,137.518 56.1458304,137.932 55.3258304,137.935 C52.3828304,137.943709 49.4408304,137.951 46.4988304,137.932 C45.3528304,137.925 44.6388304,137.198 44.5908304,136.067 C44.5768304,135.724 44.5838304,135.381 44.5838304,135.038 C44.5838304,120.298 44.5838304,105.558 44.5828304,90.818 C44.5828304,89.583 44.5808304,89.582 43.3858304,89.581 C41.8428304,89.58 40.2998304,89.567 38.7578304,89.587 C38.0558304,89.596 37.4588304,89.47 37.0868304,88.797 C36.7378304,88.167 37.0068304,87.655 37.3358304,87.126 C41.3958304,80.608 45.4478304,74.084 49.5108304,67.567 C50.3018304,66.299 51.3918304,66.3 52.1908304,67.579 C56.2718304,74.119 60.3448304,80.664 64.4108304,87.213 C65.2078304,88.496 64.6118304,89.569 63.1108304,89.577 C61.1738304,89.589 59.2358304,89.58 57.2228304,89.58" id="Fill-13"></path>
                <path d="M26.4478304,119.017 C26.4478304,113.447 26.4468304,107.876 26.4478304,102.306 C26.4478304,100.564 27.0628304,99.957 28.8318304,99.956 C31.4888304,99.954 34.1448304,99.954 36.8018304,99.956 C38.5528304,99.957 39.1208304,100.504 39.1238304,102.251 C39.1318304,108.593 39.1278304,114.935 39.1278304,121.277 C39.1278304,126.047 39.1298304,130.818 39.1268304,135.588 C39.1248304,137.598 38.5938304,138.123 36.5868304,138.124 C33.9878304,138.125155 31.3878304,138.126 28.7878304,138.124 C27.0938304,138.123 26.4478304,137.487 26.4478304,135.815 C26.4468304,130.215 26.4478304,124.617 26.4478304,119.017" id="Fill-14"></path>
                <path d="M21.1278304,131.22 C21.1278304,128.888 21.1288304,126.556 21.1278304,124.224 C21.1268304,120.398 21.1378304,116.571 21.1208304,112.743 C21.1148304,111.182 20.4768304,110.567 18.9258304,110.563 C18.0778304,110.56 17.2308304,110.564 16.3828304,110.563 C16.2768304,114.556 16.7398304,122.663 21.1278304,131.22" id="Fill-15"></path>
            </g>
        </g>
    </g>
</svg>