<?xml version="1.0" encoding="UTF-8"?>
<svg width="34px" height="42px" viewBox="0 0 34 42" version="1.1" xmlns="http://www.w3.org/2000/svg" xmlns:xlink="http://www.w3.org/1999/xlink">
    <!-- Generator: Sketch 60 (88103) - https://sketch.com -->
    <title>Group 10</title>
    <desc>Created with Sketch.</desc>
    <defs>
        <polygon id="path-1" points="0 0.0148761905 33.5562857 0.0148761905 33.5562857 41.9047619 0 41.9047619"></polygon>
    </defs>
    <g id="PETRONAS-Arbor" stroke="none" stroke-width="1" fill="none" fill-rule="evenodd">
        <g id="Desktop" transform="translate(-550.000000, -2683.000000)">
            <g id="Group-14" transform="translate(0.000000, 2484.000000)">
                <g id="Group-11" transform="translate(140.000000, 115.000000)">
                    <g id="Group-2" transform="translate(0.000000, 83.000000)">
                        <g id="Group-10" transform="translate(410.000000, 0.000000)">
                            <g id="Group-3" transform="translate(0.000000, 1.032848)">
                                <mask id="mask-2" fill="white">
                                    <use xlink:href="#path-1"></use>
                                </mask>
                                <g id="Clip-2"></g>
                                <path d="M15.9667619,41.7436381 C16.227619,41.8504952 16.5010476,41.9049714 16.7786667,41.9049714 C17.0562857,41.9049714 17.3297143,41.8504952 17.5905714,41.7436381 C22.2535238,39.8296381 26.2292381,36.5977333 29.0850476,32.3957333 C32.01,28.0921143 33.556287,23.0488762 33.556287,17.8118286 L33.556287,6.38649524 C33.5573333,5.4331619 32.9245714,4.5804 32.0173333,4.31011429 L18.3333333,0.241161905 C17.8273333,0.091352381 17.3035238,0.0148761905 16.7786667,0.0148761905 C16.2527619,0.0148761905 15.73,0.091352381 15.224,0.241161905 L1.53895238,4.31011429 C0.632761905,4.57935238 0,5.4331619 0,6.38544762 L0,17.8118286 C0,23.0488762 1.54628571,28.0921143 4.47228571,32.3957333 C7.32809524,36.5977333 11.3027619,39.8296381 15.9667619,41.7436381 L15.9667619,41.7436381 Z M1.42161905,6.38544762 C1.42161905,6.06382857 1.63533333,5.77573333 1.9412381,5.68459048 L15.6262857,1.61668571 C16.0013333,1.50459048 16.3889524,1.44801905 16.7786667,1.44801905 C17.168381,1.44801905 17.556,1.50459048 17.9310476,1.61668571 L31.6160952,5.68459048 C31.922,5.77573333 32.1357143,6.06382857 32.1357143,6.38544762 L32.1357143,17.8118286 C32.1357143,22.7586857 30.6753333,27.5211619 27.9127619,31.5848762 C25.2140952,35.5553524 21.4594286,38.6091619 17.0541905,40.4163048 C16.9661905,40.4519238 16.8729524,40.470781 16.7786667,40.470781 C16.6833333,40.470781 16.5911429,40.4519238 16.5020952,40.4163048 C12.0979048,38.6091619 8.3432381,35.5553524 5.64457143,31.5848762 C2.882,27.5211619 1.42161905,22.7586857 1.42161905,17.8118286 L1.42161905,6.38544762 Z" id="Fill-1" fill="#FECC09" mask="url(#mask-2)"></path>
                            </g>
                            <path d="M29.2300381,20.9988952 L29.2300381,18.8030857 C29.2300381,18.035181 28.6632762,17.3709905 27.9110857,17.2578476 C27.4983238,17.1949905 27.0740381,17.1342286 26.6476571,17.0776571 L26.5942286,17.0713714 L26.5795619,17.0189905 C26.373181,16.302419 26.087181,15.6078476 25.7299429,14.9530857 L25.7048,14.9048952 L25.7372762,14.8619429 C25.9970857,14.520419 26.2558476,14.1747048 26.505181,13.8342286 C26.9567048,13.2182286 26.8917524,12.3434667 26.3532762,11.8008 L24.8132762,10.2482286 C24.5220381,9.95489524 24.1312762,9.7935619 23.7132762,9.7935619 C23.3780381,9.7935619 23.0616571,9.89727619 22.7966095,10.0952762 C22.4603238,10.3456571 22.1177524,10.6054667 21.7762286,10.8694667 L21.7343238,10.9019429 L21.687181,10.8768 C21.0376571,10.516419 20.3483238,10.2283238 19.6369905,10.0198476 L19.5856571,10.005181 L19.5783238,9.95175238 C19.5228,9.52432381 19.4630857,9.09584762 19.4012762,8.67784762 C19.2881333,7.91937143 18.629181,7.34841905 17.8675619,7.34841905 L15.6895619,7.34841905 C14.9279429,7.34841905 14.2679429,7.91937143 14.1558476,8.67784762 C14.0940381,9.0948 14.0343238,9.52327619 13.9777524,9.95175238 L13.9714667,10.005181 L13.9201333,10.0198476 C13.2088,10.2283238 12.5194667,10.516419 11.8699429,10.8768 L11.8228,10.9019429 L11.7808952,10.8694667 C11.4414667,10.6075619 11.0978476,10.3467048 10.7605143,10.0952762 C10.4954667,9.89727619 10.1780381,9.79251429 9.84384762,9.79251429 C9.42584762,9.79251429 9.03508571,9.95489524 8.74384762,10.2482286 L7.20384762,11.8008 C6.66537143,12.3445143 6.59937143,13.2182286 7.05194286,13.8342286 C7.30127619,14.1736571 7.5600381,14.520419 7.81984762,14.8619429 L7.85232381,14.9048952 L7.82718095,14.9530857 C7.46994286,15.6068 7.18394286,16.302419 6.9775619,17.0189905 L6.96184762,17.0713714 L6.90946667,17.0776571 C6.48413333,17.1342286 6.0588,17.1949905 5.6460381,17.2578476 C4.89384762,17.3709905 4.32708571,18.035181 4.32708571,18.8041333 L4.32708571,20.9988952 C4.32708571,21.7668 4.89384762,22.4320381 5.6460381,22.545181 C6.05984762,22.6080381 6.48413333,22.6677524 6.90946667,22.7243238 L6.96184762,22.7316571 L6.9775619,22.7840381 C7.18394286,23.5006095 7.46994286,24.195181 7.82718095,24.8499429 L7.85232381,24.8970857 L7.81984762,24.9400381 C7.55899048,25.2836571 7.30022857,25.6293714 7.05194286,25.9688 C6.59937143,26.5848 6.66537143,27.4585143 7.20384762,28.0022286 L8.74384762,29.5548 C9.03508571,29.8481333 9.42584762,30.0094667 9.84384762,30.0094667 C10.1780381,30.0094667 10.4954667,29.9057524 10.7605143,29.7077524 C11.0968,29.4563238 11.440419,29.1954667 11.7798476,28.9335619 L11.8228,28.9000381 L11.8699429,28.9262286 C12.518419,29.2855619 13.2088,29.5736571 13.9190857,29.783181 L13.9714667,29.7978476 L13.9777524,29.8512762 C14.0343238,30.2787048 14.0940381,30.707181 14.1558476,31.125181 C14.2679429,31.8836571 14.9279429,32.4546095 15.6895619,32.4546095 L17.8675619,32.4546095 C18.629181,32.4546095 19.2881333,31.8836571 19.4012762,31.125181 C19.4620381,30.712419 19.5217524,30.2839429 19.5783238,29.8512762 L19.5856571,29.7978476 L19.6369905,29.783181 C20.3483238,29.5736571 21.0376571,29.2855619 21.687181,28.9262286 L21.7343238,28.9000381 L21.7762286,28.9335619 C22.1146095,29.194419 22.4582286,29.4552762 22.7966095,29.7077524 C23.0616571,29.9047048 23.3780381,30.0094667 23.7132762,30.0094667 C24.1312762,30.0094667 24.5220381,29.8481333 24.8132762,29.5537524 L26.3532762,28.0022286 C26.8917524,27.4585143 26.9567048,26.5848 26.505181,25.9677524 C26.2568952,25.630419 25.9981333,25.2836571 25.7372762,24.9400381 L25.7048,24.8970857 L25.7299429,24.8499429 C26.087181,24.195181 26.373181,23.4995619 26.5795619,22.7829905 L26.5942286,22.7316571 L26.6476571,22.7243238 C27.0719429,22.6677524 27.4972762,22.6080381 27.9110857,22.545181 C28.6632762,22.4320381 29.2300381,21.7668 29.2300381,20.9988952 L29.2300381,20.9988952 Z M27.5454667,18.9906095 L27.5454667,20.812419 L27.5454667,20.8836571 L27.4752762,20.8941333 C27.0876571,20.9517524 26.6885143,21.0072762 26.2914667,21.0596571 C25.6702286,21.1413714 25.1610857,21.5855619 24.9955619,22.1910857 C24.8101333,22.8699429 24.5408952,23.5257524 24.195181,24.1396571 C23.887181,24.6865143 23.9343238,25.3632762 24.3167048,25.8640381 C24.5618476,26.1856571 24.8048952,26.5093714 25.0385143,26.8257524 L25.0814667,26.8833714 L25.031181,26.9336571 L23.7530857,28.221181 L23.7038476,28.2725143 L23.6462286,28.2295619 C23.3256571,27.9886095 23.0050857,27.7445143 22.6918476,27.5014667 C22.4215619,27.2908952 22.0842286,27.1756571 21.7448,27.1756571 C21.4787048,27.1746095 21.2147048,27.2458476 20.9821333,27.3788952 C20.3734667,27.7277524 19.7228952,27.9990857 19.0492762,28.1855619 C18.4489905,28.353181 18.0079429,28.8654667 17.9272762,29.4919429 C17.8759429,29.8889905 17.820419,30.2912762 17.7628,30.6862286 L17.7523238,30.756419 L17.6821333,30.756419 L15.8749905,30.756419 L15.8048,30.756419 L15.7943238,30.6862286 C15.7367048,30.2912762 15.681181,29.8889905 15.6298476,29.4919429 C15.549181,28.8654667 15.1081333,28.353181 14.5078476,28.1866095 C13.833181,27.9990857 13.1836571,27.7267048 12.5749905,27.3788952 C12.342419,27.2458476 12.078419,27.1756571 11.8123238,27.1756571 C11.4718476,27.1756571 11.1355619,27.2908952 10.8652762,27.5014667 C10.5457524,27.7487048 10.225181,27.9938476 9.91089524,28.2295619 L9.85327619,28.2725143 L9.80299048,28.221181 L8.52594286,26.9336571 L8.47565714,26.8833714 L8.51860952,26.8257524 C8.75327619,26.5072762 8.99632381,26.1835619 9.24041905,25.8640381 C9.62175238,25.3632762 9.66994286,24.6865143 9.36194286,24.1396571 C9.01622857,23.5257524 8.74699048,22.8709905 8.5615619,22.1910857 C8.39499048,21.5855619 7.88689524,21.1413714 7.26565714,21.0596571 C6.87175238,21.0083238 6.47365714,20.9517524 6.0808,20.8941333 L6.01060952,20.8836571 L6.01060952,20.812419 L6.01060952,18.9906095 L6.01060952,18.9193714 L6.0808,18.9088952 C6.4715619,18.8512762 6.87070476,18.7957524 7.26565714,18.7433714 C7.88689524,18.6616571 8.39499048,18.2174667 8.5615619,17.6119429 C8.74699048,16.9330857 9.01622857,16.2772762 9.36194286,15.6633714 C9.66994286,15.1165143 9.6228,14.4397524 9.24041905,13.9400381 C8.99632381,13.6194667 8.75327619,13.2957524 8.51860952,12.9772762 L8.47565714,12.9196571 L8.52594286,12.8693714 L9.80299048,11.5818476 L9.85327619,11.5315619 L9.91089524,11.5734667 C10.2262286,11.8112762 10.5478476,12.0553714 10.8642286,12.3015619 C11.1355619,12.5121333 11.4718476,12.6273714 11.8123238,12.6273714 C12.078419,12.6273714 12.342419,12.557181 12.5749905,12.4241333 C13.1836571,12.0752762 13.8342286,11.8039429 14.5078476,11.616419 C15.1081333,11.4498476 15.549181,10.9375619 15.6298476,10.3110857 C15.6822286,9.9088 15.7367048,9.5075619 15.7943238,9.1168 L15.8048,9.0455619 L15.8749905,9.0455619 L17.6821333,9.0455619 L17.7523238,9.0455619 L17.7628,9.1168 C17.820419,9.50860952 17.8748952,9.90984762 17.9272762,10.3110857 C18.0079429,10.9375619 18.4489905,11.4498476 19.0492762,11.616419 C19.7228952,11.8039429 20.3734667,12.0752762 20.9821333,12.4241333 C21.2147048,12.557181 21.4787048,12.6273714 21.7448,12.6273714 C22.0842286,12.6273714 22.4215619,12.5121333 22.6918476,12.3015619 C23.0103238,12.0553714 23.3308952,11.8102286 23.6462286,11.5734667 L23.7038476,11.5305143 L23.7530857,11.5818476 L25.031181,12.8693714 L25.0814667,12.9196571 L25.0385143,12.9772762 C24.8048952,13.2936571 24.5618476,13.6173714 24.3167048,13.9389905 C23.9343238,14.4397524 23.887181,15.1165143 24.195181,15.6633714 C24.5408952,16.2772762 24.8101333,16.9330857 24.9955619,17.6119429 C25.1610857,18.2174667 25.6702286,18.6616571 26.290419,18.7433714 C26.6885143,18.7957524 27.0876571,18.8512762 27.4763238,18.9088952 L27.5454667,18.9193714 L27.5454667,18.9906095 Z" id="Fill-4" fill="#FECC09"></path>
                            <path d="M16.7783524,25.2495048 C13.8534,25.2495048 11.4732095,22.8504571 11.4732095,19.9014095 C11.4732095,16.9523619 13.8534,14.5533143 16.7783524,14.5533143 C19.7033048,14.5533143 22.0834952,16.9523619 22.0834952,19.9014095 C22.0834952,22.8504571 19.7033048,25.2495048 16.7783524,25.2495048 M16.7783524,16.0294095 C14.6611143,16.0294095 12.937781,17.7663619 12.937781,19.9014095 C12.937781,22.0364571 14.6611143,23.7723619 16.7783524,23.7723619 C18.8955905,23.7723619 20.6189238,22.0364571 20.6189238,19.9014095 C20.6189238,17.7663619 18.8955905,16.0294095 16.7783524,16.0294095" id="Fill-6" fill="#FECC09"></path>
                            <path d="M16.7783524,14.5946952 C19.6802571,14.5946952 22.0415905,16.9748857 22.0415905,19.9008857 C22.0415905,22.8279333 19.6802571,25.2081238 16.7783524,25.2081238 C13.8764476,25.2081238 11.5151143,22.8279333 11.5151143,19.9008857 C11.5151143,16.9748857 13.8764476,14.5946952 16.7783524,14.5946952 M16.7783524,23.8147905 C18.9186381,23.8147905 20.659781,22.058981 20.659781,19.9008857 C20.659781,17.7438381 18.9186381,15.9880286 16.7783524,15.9880286 C14.6380667,15.9880286 12.8969238,17.7438381 12.8969238,19.9008857 C12.8969238,22.058981 14.6380667,23.8147905 16.7783524,23.8147905 M16.7783524,14.5119333 C13.8303524,14.5119333 11.4323524,16.9298381 11.4323524,19.9008857 C11.4323524,22.872981 13.8303524,25.2908857 16.7783524,25.2908857 C19.7263524,25.2908857 22.1243524,22.872981 22.1243524,19.9008857 C22.1243524,16.9298381 19.7263524,14.5119333 16.7783524,14.5119333 M16.7783524,23.730981 C14.6831143,23.730981 12.9796857,22.0128857 12.9796857,19.9008857 C12.9796857,17.7899333 14.6831143,16.0707905 16.7783524,16.0707905 C18.8735905,16.0707905 20.577019,17.7899333 20.577019,19.9008857 C20.577019,22.0128857 18.8735905,23.730981 16.7783524,23.730981" id="Fill-8" fill="#FECC09"></path>
                        </g>
                    </g>
                </g>
            </g>
        </g>
    </g>
</svg>